<?xml version="1.0" encoding="UTF-8"?>
<svg width="18px" height="18px" viewBox="0 0 18 18" version="1.1" xmlns="http://www.w3.org/2000/svg" xmlns:xlink="http://www.w3.org/1999/xlink">
  <!-- Generator: Sketch 47.1 (45422) - http://www.bohemiancoding.com/sketch -->
  <desc>Created with Sketch.</desc>
  <defs></defs>
  <g id="Symbols" stroke="none" stroke-width="1" fill="none" fill-rule="evenodd">
    <g id="按钮-添加" fill="#258FF8">
      <path d="M9,18 C4.02890625,18 0,13.9710937 0,9 C0,4.02890625 4.02890625,0 9,0 C13.9710937,0 18,4.02890625 18,9 C18,13.9710937 13.9710937,18 9,18 L9,18 Z M14.4685547,3.53144531 C13.7583984,2.82128906 12.9304688,2.26230469 12.009375,1.87382813 C11.0566406,1.46953125 10.0441406,1.265625 9,1.265625 C7.95585938,1.265625 6.94335938,1.46953125 5.990625,1.87207031 C5.06953125,2.26230469 4.24335938,2.81953125 3.53144531,3.5296875 C2.82128906,4.23984375 2.26230469,5.06777344 1.87382813,5.98886719 C1.46953125,6.94335938 1.265625,7.95585938 1.265625,9 C1.265625,10.0441406 1.46953125,11.0566406 1.87207031,12.009375 C2.26230469,12.9304688 2.81953125,13.7566406 3.5296875,14.4685547 C4.23984375,15.1787109 5.06777344,15.7376953 5.98886719,16.1261719 C6.94335938,16.5304688 7.95585938,16.734375 9,16.734375 C10.0441406,16.734375 11.0566406,16.5304688 12.009375,16.1279297 C12.9304688,15.7376953 13.7566406,15.1804687 14.4685547,14.4703125 C15.1787109,13.7601563 15.7376953,12.9322266 16.1261719,12.0111328 C16.5304688,11.0566406 16.734375,10.0441406 16.734375,9 C16.734375,7.95585938 16.5304688,6.94335938 16.1279297,5.990625 C15.7376953,5.06953125 15.1804687,4.24160156 14.4685547,3.53144531 L14.4685547,3.53144531 Z M12.8671875,9.62402344 L9.64160156,9.62402344 L9.64160156,12.8496094 C9.64160156,13.1994141 9.35859375,13.4824219 9.00878906,13.4824219 L9.00878906,13.4824219 C8.65898437,13.4824219 8.37597656,13.1994141 8.37597656,12.8496094 L8.37597656,9.62402344 L5.1328125,9.62402344 C4.78300781,9.62402344 4.5,9.34101563 4.5,8.99121094 L4.5,8.99121094 C4.5,8.64140625 4.78300781,8.35839844 5.1328125,8.35839844 L8.37597656,8.35839844 L8.37597656,5.15039062 C8.37597656,4.80058594 8.65898437,4.51757812 9.00878906,4.51757812 L9.00878906,4.51757812 C9.35859375,4.51757812 9.64160156,4.80058594 9.64160156,5.15039062 L9.64160156,8.35839844 L12.8671875,8.35839844 C13.2169922,8.35839844 13.5,8.64140625 13.5,8.99121094 L13.5,8.99121094 C13.5,9.34101563 13.2169922,9.62402344 12.8671875,9.62402344 L12.8671875,9.62402344 Z" id="add" transform="translate(9.000000, 9.000000) scale(1, -1) translate(-9.000000, -9.000000) "></path>
    </g>
  </g>
</svg>
