<?xml version="1.0" encoding="UTF-8"?>
<svg width="12px" height="12px" viewBox="0 0 12 12" version="1.1" xmlns="http://www.w3.org/2000/svg" xmlns:xlink="http://www.w3.org/1999/xlink">
    <!-- Generator: Sketch 48.2 (47327) - http://www.bohemiancoding.com/sketch -->
    <title>Shape</title>
    <desc>Created with Sketch.</desc>
    <defs></defs>
    <g id="桌台设置" stroke="none" stroke-width="1" fill="none" fill-rule="evenodd" transform="translate(-450.000000, -324.000000)">
        <g id="Group-3" transform="translate(316.000000, 265.000000)" fill="#666666" fill-rule="nonzero">
            <g id="Group-4" transform="translate(100.000000, 0.000000)">
                <path d="M34.8614534,66.2498673 C35.4827611,63.2797614 36.0683632,61.1407099 36.6182596,59.8327127 C39.2015317,59.3527522 42.0875931,60.1634013 44.3577273,61.5980309 C42.6065342,62.697712 40.9425163,64.6081863 39.3656735,67.3294539 L34.8614534,66.2498673 Z M38.4944323,59.6980294 C37.9100107,60.8474023 37.3621488,62.2234862 36.8508468,63.826281 L36.3842783,63.688284 C36.7995387,62.0151601 37.2088781,60.6880636 37.6122965,59.7069943 C37.9499116,59.6921168 38.1233675,59.6909322 38.4944323,59.6980294 Z M40.6474788,60.0045878 C40.0470932,60.8541317 39.2742301,62.2888113 38.3288895,64.3086264 L37.8420271,64.1357238 C38.7761168,61.9274258 39.4329874,60.4931324 39.8126388,59.8328436 C40.1103293,59.8862947 40.3101991,59.9281693 40.6474788,60.0045878 Z M42.7557439,60.7374661 C41.6850146,61.7875469 40.6531317,63.1492599 39.6600951,64.822605 L39.1749795,64.6380261 C40.1663747,62.8477277 41.123928,61.4496453 42.0476393,60.4437789 C42.3108638,60.5418298 42.4344975,60.5973209 42.7557439,60.7374661 Z M35.8441958,59.1916234 C34.4342777,63.477549 34,67.0081094 34,67.0081094 C34,67.0081094 39.5177358,68.5123722 39.5177358,68.5123722 C39.5177358,68.5123722 42.6869087,62.6181338 46,61.6316905 C44.3339815,60.5575791 40.4371872,58.3365631 35.8441958,59.1916234 Z M34.8606279,66.2500008 L34.1369061,66.0873392 L34.3104646,65.1169977 L35.0690583,65.2760467 L34.8606279,66.2500008 Z M40.0941602,67.5233527 L39.367279,67.3264472 L40.0086896,66.2660088 L40.749562,66.5062637 L40.0941602,67.5233527 Z M44.9870588,65.6737833 C45.5386938,65.6737833 45.9858823,65.2600114 45.9858823,64.7495979 C45.9858823,64.2391843 45.5386938,63.8254124 44.9870588,63.8254124 C44.4354238,63.8254124 43.9882353,64.2391843 43.9882353,64.7495979 C43.9882353,65.2600114 44.4354238,65.6737833 44.9870588,65.6737833 Z M37.2729684,67.8991282 C36.6034436,69.0260415 36.0907067,69.9668393 35.7347579,70.7215217 C35.5170106,71.0392118 35.2792862,71.0291182 34.9900669,70.9617111 C34.797254,70.916773 34.6764501,70.7309136 34.6276551,70.4041331 L36.1699216,67.5978521 L37.2729684,67.8991282 Z" id="Shape" transform="translate(40.000000, 65.000000) rotate(180.000000) translate(-40.000000, -65.000000) "></path>
            </g>
        </g>
    </g>
</svg>