<?xml version="1.0" encoding="UTF-8"?>
<svg width="13px" height="12px" viewBox="0 0 13 12" version="1.1" xmlns="http://www.w3.org/2000/svg" xmlns:xlink="http://www.w3.org/1999/xlink">
    <!-- Generator: Sketch 47 (45396) - http://www.bohemiancoding.com/sketch -->
    <title>Shape</title>
    <desc>Created with Sketch.</desc>
    <defs></defs>
    <g id="Page-1" stroke="none" stroke-width="1" fill="none" fill-rule="evenodd">
        <g id="桌台设置" transform="translate(-470.000000, -324.000000)" fill="#666666">
            <g id="Group-3" transform="translate(316.000000, 265.000000)">
                <g id="Group-4" transform="translate(100.000000, 0.000000)">
                    <path d="M55.6020152,59.1504702 C55.5686819,59.1790416 55.5353486,59.2147559 55.5020152,59.2504702 C55.5383789,59.2147559 55.5686819,59.1790416 55.6020152,59.1504702 L55.6020152,59.1504702 Z M55.4716973,59.2055531 C55.4376064,59.2376959 55.4035155,59.2698388 55.3716973,59.3055531 C55.4035155,59.2698388 55.4376064,59.2376959 55.4716973,59.2055531 L55.4716973,59.2055531 Z M65.9341693,69.137931 C65.8428124,69.229288 65.7098074,69.2803403 65.580833,69.2803403 L63.1007613,69.2803403 L63.1007613,70.0528437 C63.1007613,70.575459 62.6762203,71 62.153605,71 L57.9202866,71 C57.3976713,71 56.9731303,70.575459 56.9731303,70.0528437 L56.9731303,69.2803403 L54.4809673,69.2803403 C54.2163009,69.2803403 54,69.0653829 54,68.799373 C54,68.5333632 54.2149575,68.3184057 54.4809673,68.3184057 L54.9055083,68.3184057 L54.9055083,59.9471563 C54.9055083,59.424541 55.3300493,59 55.8526646,59 L64.3569189,59 C64.8795343,59 65.3040752,59.424541 65.3040752,59.9471563 L65.3040752,68.3184057 L65.580833,68.3184057 C65.8454993,68.3184057 66.0752351,68.5333632 66.0752351,68.799373 C66.0752351,68.927004 66.0255262,69.0465741 65.9341693,69.137931 L65.9341693,69.137931 Z M57.9189431,70.0501567 L62.1495746,70.0501567 L62.1495746,69.2722794 L57.9189431,69.2722794 L57.9189431,70.0501567 L57.9189431,70.0501567 Z M64.3555755,59.9484998 L55.8526646,59.9484998 L55.8526646,68.3184057 L57.0779221,68.3184057 L64.3555755,68.3184057 L64.3555755,59.9484998 L64.3555755,59.9484998 Z M60.0309001,66.7062248 C59.7635468,66.7062248 59.5472459,66.4899239 59.5472459,66.2225705 L59.5472459,61.7353336 C59.5472459,61.4679803 59.7635468,61.2516794 60.0309001,61.2516794 C60.2982535,61.2516794 60.5145544,61.4679803 60.5145544,61.7353336 L60.5145544,66.2225705 C60.5145544,66.4899239 60.2982535,66.7062248 60.0309001,66.7062248 L60.0309001,66.7062248 Z M57.4111061,66.7062248 C57.1437528,66.7062248 56.9274519,66.4899239 56.9274519,66.2225705 L56.9274519,61.7353336 C56.9274519,61.4679803 57.1437528,61.2516794 57.4111061,61.2516794 C57.6784595,61.2516794 57.8947604,61.4679803 57.8947604,61.7353336 L57.8947604,66.2225705 C57.8947604,66.4899239 57.6784595,66.7062248 57.4111061,66.7062248 L57.4111061,66.7062248 Z M62.6238245,66.7062248 C62.3564711,66.7062248 62.1401702,66.4899239 62.1401702,66.2225705 L62.1401702,61.7353336 C62.1401702,61.4679803 62.3564711,61.2516794 62.6238245,61.2516794 C62.8911778,61.2516794 63.1074787,61.4679803 63.1074787,61.7353336 L63.1074787,66.2225705 C63.1074787,66.4899239 62.8911778,66.7062248 62.6238245,66.7062248 L62.6238245,66.7062248 Z" id="Shape" transform="translate(60.037618, 65.000000) scale(1, -1) translate(-60.037618, -65.000000) "></path>
                </g>
            </g>
        </g>
    </g>
</svg>