<?xml version="1.0" encoding="UTF-8"?>
<svg width="16px" height="16px" viewBox="0 0 16 16" version="1.1" xmlns="http://www.w3.org/2000/svg" xmlns:xlink="http://www.w3.org/1999/xlink">
    <title>矩形</title>
    <g id="2022票据样式管理" stroke="none" stroke-width="1" fill="none" fill-rule="evenodd">
        <g id="票据样式设置-选中组件样式" transform="translate(-900.000000, -245.000000)" fill="#000000" fill-rule="nonzero">
            <g id="删除" transform="translate(900.000000, 245.000000)">
                <rect id="矩形" opacity="0" x="0" y="0" width="16" height="16"></rect>
                <path d="M3.3532,4.66666667 L3.3532,14.02 C3.35356746,14.3769918 3.64287485,14.6662992 3.99986667,14.6666667 L12.0198667,14.6666667 C12.3772,14.6666667 12.6665333,14.3766667 12.6665333,14.02 L12.6665333,4.66666667 L3.3532,4.66666667 Z M12.0198667,16 L3.99986667,16 C2.90853334,16 2.01986667,15.112 2.01986667,14.02 L2.01986667,3.33333333 L13.9998667,3.33333333 L13.9998667,14.02 C13.9998667,15.112 13.1118667,16 12.0198667,16 Z M15.3333333,4.66666667 L0.666666672,4.66666667 C0.3,4.66666667 0,4.36666667 0,4 C0,3.63333333 0.3,3.33333333 0.666666672,3.33333333 L15.3333333,3.33333333 C15.7,3.33333333 16,3.63333333 16,4 C16,4.36666667 15.7,4.66666667 15.3333333,4.66666667 M12,3.33333333 L10.6666667,3.33333333 L10.6666667,2 C10.6666667,1.63266667 10.368,1.33333333 10,1.33333333 L6,1.33333333 C5.63266667,1.33333333 5.33333333,1.63266666 5.33333333,2 L5.33333333,3.33333333 L4,3.33333333 L4,2 C4,0.897333328 4.89733333,0 6,0 L10,0 C11.1026667,0 12,0.897333328 12,2 L12,3.33333333 Z M6,12.6666667 C5.63333333,12.6666667 5.33333333,12.3666667 5.33333333,12 L5.33333333,7.33333333 C5.33333333,6.96666666 5.63333333,6.66666667 6,6.66666667 C6.36666667,6.66666667 6.66666667,6.96666667 6.66666667,7.33333333 L6.66666667,12 C6.66666667,12.3666667 6.36666667,12.6666667 6,12.6666667 M10,12.6666667 C9.63333333,12.6666667 9.33333333,12.3666667 9.33333333,12 L9.33333333,7.33333333 C9.33333333,6.96666666 9.63333333,6.66666667 10,6.66666667 C10.3666667,6.66666667 10.6666667,6.96666667 10.6666667,7.33333333 L10.6666667,12 C10.6666667,12.3666667 10.3666667,12.6666667 10,12.6666667" id="形状"></path>
            </g>
        </g>
    </g>
</svg>