<?xml version="1.0" encoding="UTF-8"?>
<svg width="12px" height="12px" viewBox="0 0 12 12" version="1.1" xmlns="http://www.w3.org/2000/svg" xmlns:xlink="http://www.w3.org/1999/xlink">
    <!-- Generator: Sketch 48.2 (47327) - http://www.bohemiancoding.com/sketch -->
    <title>Shape</title>
    <desc>Created with Sketch.</desc>
    <defs></defs>
    <g id="桌台设置" stroke="none" stroke-width="1" fill="none" fill-rule="evenodd" transform="translate(-430.000000, -324.000000)">
        <g id="Group-3" transform="translate(316.000000, 265.000000)" fill="#666666">
            <g id="Group-4" transform="translate(100.000000, 0.000000)">
                <path d="M15.0111897,59.0582481 L18.9379169,60.900094 L18.978088,60.9201796 L25.6464941,67.5926029 C25.8754695,67.8195697 26,68.1228617 26,68.4442306 C26,68.7655996 25.873461,69.0688916 25.6464941,69.2958584 L24.3007616,70.641591 C24.0717862,70.8685578 23.7684942,70.9930883 23.4471252,70.9930883 C23.1257563,70.9930883 22.8224643,70.8665493 22.5954975,70.6395824 L15.9532025,64.0013046 L15.9230742,63.9711763 L15.9049972,63.9330137 L14.0711855,60.0344064 C13.9627235,59.8034224 13.9787919,59.5503444 14.1153737,59.3354289 C14.249947,59.1285476 14.4829395,59 14.7259748,59 C14.8183684,59 14.9147791,59.0200856 15.0111897,59.0582481 Z M22.3332953,68.8895419 L23.4471252,69.9855135 L25.0530369,68.4442306 L23.9747983,67.3072495 L22.3332953,68.8895419 Z M15.1821717,60.0344064 L16.8111435,63.4808427 L21.5820782,68.1480301 L23.260511,66.5847569 L18.4725517,61.872075 L15.1821717,60.0344064 Z" id="Shape" transform="translate(20.000000, 64.996544) scale(1, -1) translate(-20.000000, -64.996544) "></path>
            </g>
        </g>
    </g>
</svg>