<?xml version="1.0" encoding="UTF-8"?>
<svg width="11px" height="12px" viewBox="0 0 11 12" version="1.1" xmlns="http://www.w3.org/2000/svg" xmlns:xlink="http://www.w3.org/1999/xlink">
    <!-- Generator: Sketch 47 (45396) - http://www.bohemiancoding.com/sketch -->
    <title>Shape</title>
    <desc>Created with Sketch.</desc>
    <defs></defs>
    <g id="Page-1" stroke="none" stroke-width="1" fill="none" fill-rule="evenodd">
        <g id="桌台设置" transform="translate(-470.000000, -416.000000)" fill-rule="nonzero" fill="#FFFFFF">
            <g id="Group-3" transform="translate(316.000000, 365.000000)">
                <g id="Group-4" transform="translate(100.000000, 0.000000)">
                    <path d="M62.0695483,55.2120411 L62.0694999,55.2120411 L62.0496362,54.0742691 C62.0186859,52.3020051 60.6461515,50.9860153 58.8512914,51.0001122 L58.8163031,51.0007288 C56.9920161,51.0497897 55.5919166,52.4430705 55.6223591,54.186367 L55.6427306,55.3529493 C54.6997397,55.5090183 53.9828426,56.3442638 54.0003126,57.3447062 L54.0648607,61.0426434 C54.0840233,62.1404582 54.9772279,63.0185504 56.0557834,62.9997022 L62.2036136,62.8923798 C63.2820965,62.8735557 64.1441817,61.9648397 64.125007,60.8670371 L64.0604588,57.1690998 C64.0412479,56.0713093 63.148007,55.1931929 62.0695362,55.2120411 L62.0695362,55.2120411 L62.0695483,55.2120411 Z M56.1812648,54.1766225 C56.1563112,52.7466367 57.3243685,51.6047904 58.8437352,51.5693669 C60.3284038,51.551764 61.4654141,52.6300655 61.4907788,54.0839531 L61.5106425,55.2218098 L56.2011407,55.3144912 L56.1812769,54.1766346 L56.1812648,54.1766225 Z M63.5660771,60.8768299 C63.5797629,61.6612735 62.9643125,62.3100437 62.1936515,62.3234998 L56.0458213,62.4308222 C55.2751119,62.4442783 54.6374402,61.8174392 54.6237665,61.0328989 L54.5592183,57.3349617 C54.5455325,56.5505181 55.1609345,55.9017479 55.9316439,55.8882918 L62.0794741,55.7809694 C62.8501351,55.7675375 63.4878552,56.3944008 63.5015289,57.1788443 L63.5660771,60.8767937 L63.5660771,60.8768299 Z M59.0254107,56.9724207 C58.1008085,56.9885487 57.3621012,57.7672979 57.3785193,58.7084754 C57.3932811,59.5541907 58.0142083,60.2422895 58.8105967,60.3625844 C58.8097987,60.3722805 58.8053859,60.3808039 58.8055673,60.3908023 L58.8204621,61.2441827 C58.8231944,61.4014003 58.9503926,61.5264223 59.1048416,61.5237383 C59.2592422,61.5210544 59.3821001,61.3916437 59.3793436,61.2344382 L59.3644488,60.3810578 C59.3642675,60.3710715 59.3594436,60.3627053 59.358283,60.3530454 C60.14992,60.2050646 60.7465826,59.4956754 60.7318329,58.6499842 C60.7154027,57.7088309 59.9499887,56.9563411 59.0253986,56.972457 L59.0253986,56.972457 L59.0254107,56.9724207 Z M59.0750641,59.8169776 C58.4588762,59.8277376 57.9484148,59.3259448 57.9374493,58.6987188 C57.9264837,58.0714202 58.4191607,57.552097 59.0353607,57.5413369 C59.6515365,57.5305769 60.162022,58.0323697 60.1729755,58.6596804 C60.183929,59.2869184 59.6912398,59.8062055 59.0750641,59.8169776 L59.0750641,59.8169776 Z" id="Shape"></path>
                </g>
            </g>
        </g>
    </g>
</svg>