<?xml version="1.0" encoding="UTF-8"?>
<svg width="14px" height="14px" viewBox="0 0 14 14" version="1.1" xmlns="http://www.w3.org/2000/svg" xmlns:xlink="http://www.w3.org/1999/xlink">
    <title>拖动</title>
    <g id="2022票据样式管理" stroke="none" stroke-width="1" fill="none" fill-rule="evenodd">
        <g id="图标" transform="translate(-29.000000, -62.000000)">
            <g id="编组-10" transform="translate(29.000000, 62.000000)">
                <g id="拖动" transform="translate(1.000000, 1.000000)">
                    <path d="M5.9996717,-0.5 C7.79168861,-0.5 9.41689941,0.228856244 10.5940216,1.40597844 C11.7711437,2.58310058 12.5,4.20831132 12.5,6.00032831 C12.5,7.79243243 11.7712388,9.41770717 10.5941061,10.5948397 C9.41708861,11.7718572 7.79195714,12.5006563 5.9996717,12.5006563 C4.20768153,12.5006563 2.58267049,11.7718271 1.40571996,10.5947478 C0.228725773,9.41762487 -0.5,7.79238699 -0.5,6.00032831 C-0.5,4.20826962 0.228725784,2.58303166 1.40571999,1.40590864 C2.58267052,0.228829297 4.20768154,-0.5 5.9996717,-0.5 Z" id="路径" stroke-opacity="0.825038243" stroke="#FA6400" fill="#FEF4D8"></path>
                    <g id="yidongbiaoge" transform="translate(2.000000, 2.000000)" fill="#FA6400" fill-rule="nonzero">
                        <path d="M1.77777778,4.43955555 L6.22222222,4.44444445 L6.22222222,5.33333334 L8,4 L6.22222222,2.66666666 L6.22222222,3.55555555 L1.77777778,3.56 L1.77777778,4.43955555 Z M6.22222222,3.56044445 L1.77777778,3.55555555 L1.77777778,2.66666666 L0,4 L1.77777778,5.33333334 L1.77777778,4.44444445 L6.22222222,4.44 L6.22222222,3.56044445 Z M3.56044445,1.77777778 L3.55555555,6.22222222 L2.66666666,6.22222222 L4,8 L5.33333334,6.22222222 L4.44444445,6.22222222 L4.44,1.77777778 L3.56044445,1.77777778 Z M4.43955555,6.22222222 L4.44444445,1.77777778 L5.33333334,1.77777778 L4,0 L2.66666666,1.77777778 L3.55555555,1.77777778 L3.56,6.22222222 L4.43955555,6.22222222 Z" id="形状"></path>
                    </g>
                </g>
            </g>
        </g>
    </g>
</svg>