<?xml version="1.0" encoding="UTF-8"?>
<svg width="20px" height="20px" viewBox="0 0 20 20" version="1.1" xmlns="http://www.w3.org/2000/svg" xmlns:xlink="http://www.w3.org/1999/xlink">
    <!-- Generator: Sketch 55.1 (78136) - https://sketchapp.com -->
    <title>滞留榜</title>
    <desc>Created with Sketch.</desc>
    <g id="z" stroke="none" stroke-width="1" fill="none" fill-rule="evenodd">
        <g id="报表-公司" transform="translate(-1117.000000, -2629.000000)">
            <g id="商品销售分析" transform="translate(158.000000, 2552.000000)">
                <g id="Group-18" transform="translate(959.000000, 74.000000)">
                    <g id="滞留榜" transform="translate(0.000000, 3.000000)">
                        <rect id="Rectangle-8" x="0" y="0" width="20" height="20"></rect>
                        <path d="M12.9830615,6.64599737 L9.81295058,8.09659176 L2.36943025,4.56220701 L6.25044481,2.76335482 C6.29510828,2.83139067 6.35692633,2.88748968 6.43016764,2.92645075 L12.9830615,6.41670367 L12.9830615,6.64599737 Z M13.9815217,7.24465536 L17.9753622,5.42181848 L17.9753622,14.3268563 L9.98768111,18.2142958 L9.98768111,9.06653285 L12.9830615,7.70036458 L12.9830615,10.0096111 C12.9830615,10.2745387 13.2065744,10.489305 13.4822916,10.489305 C13.7580087,10.489305 13.9815217,10.2745387 13.9815217,10.0096111 L13.9815217,7.24465536 Z M7.28385105,2.2846203 L10.0545779,1 L17.5759782,4.54493801 L14.1442707,6.1144965 C14.11151,5.98384025 14.023102,5.87243255 13.9006464,5.8074924 L7.28385105,2.28557968 L7.28385105,2.2846203 Z M2,5.4371687 L8.98922096,8.76048813 L8.98922096,17.7326831 L2,14.3268563 L2,5.4371687 Z" id="Shape" fill="#FCB20C" fill-rule="nonzero"></path>
                    </g>
                </g>
            </g>
        </g>
    </g>
</svg>