<?xml version="1.0" encoding="UTF-8"?>
<svg width="13px" height="14px" viewBox="0 0 13 14" version="1.1" xmlns="http://www.w3.org/2000/svg" xmlns:xlink="http://www.w3.org/1999/xlink">
    <!-- Generator: Sketch 56.2 (81672) - https://sketch.com -->
    <title>Combined Shape Copy</title>
    <desc>Created with Sketch.</desc>
    <g id="营业概况" stroke="none" stroke-width="1" fill="none" fill-rule="evenodd">
        <g id="报表-公司" transform="translate(-339.000000, -535.000000)" fill="#FF9B58">
            <g id="编组-18" transform="translate(158.000000, 210.000000)">
                <g id="提示" transform="translate(165.000000, 285.000000)">
                    <path d="M16.8235294,40 L28.1764706,40 C28.6312933,40 29,40.3687067 29,40.8235294 L29,53.1764706 C29,53.6312933 28.6312933,54 28.1764706,54 L16.8235294,54 C16.3687067,54 16,53.6312933 16,53.1764706 L16,40.8235294 C16,40.3687067 16.3687067,40 16.8235294,40 Z M19.0551471,43.2941176 C18.71403,43.2941176 18.4375,43.5706477 18.4375,43.9117647 C18.4375,44.2528818 18.71403,44.5294118 19.0551471,44.5294118 L25.9448529,44.5294118 C26.28597,44.5294118 26.5625,44.2528818 26.5625,43.9117647 C26.5625,43.5706477 26.28597,43.2941176 25.9448529,43.2941176 L19.0551471,43.2941176 Z M19.0551471,46.5882353 C18.71403,46.5882353 18.4375,46.8647653 18.4375,47.2058824 C18.4375,47.5469994 18.71403,47.8235294 19.0551471,47.8235294 L25.9448529,47.8235294 C26.28597,47.8235294 26.5625,47.5469994 26.5625,47.2058824 C26.5625,46.8647653 26.28597,46.5882353 25.9448529,46.5882353 L19.0551471,46.5882353 Z M19.0551471,49.8823529 C18.71403,49.8823529 18.4375,50.1588829 18.4375,50.5 C18.4375,50.8411171 18.71403,51.1176471 19.0551471,51.1176471 L23.5073529,51.1176471 C23.84847,51.1176471 24.125,50.8411171 24.125,50.5 C24.125,50.1588829 23.84847,49.8823529 23.5073529,49.8823529 L19.0551471,49.8823529 Z" id="Combined-Shape-Copy"></path>
                </g>
            </g>
        </g>
    </g>
</svg>