<?xml version="1.0" encoding="UTF-8"?>
<svg width="20px" height="20px" viewBox="0 0 20 20" version="1.1" xmlns="http://www.w3.org/2000/svg" xmlns:xlink="http://www.w3.org/1999/xlink">
    <!-- Generator: Sketch 55.1 (78136) - https://sketchapp.com -->
    <title>热销榜</title>
    <desc>Created with Sketch.</desc>
    <g id="z" stroke="none" stroke-width="1" fill="none" fill-rule="evenodd">
        <g id="报表-公司" transform="translate(-317.000000, -2629.000000)">
            <g id="商品销售分析" transform="translate(158.000000, 2552.000000)">
                <g id="Group-19" transform="translate(159.000000, 74.000000)">
                    <g id="hot" transform="translate(0.000000, 3.000000)">
                        <g id="热销榜">
                            <rect id="Rectangle-7" x="0" y="0" width="20" height="20"></rect>
                            <path d="M7.2157738,19 C6.06549641,16.5037857 6.67839516,15.0734286 7.5621677,13.726 C8.53019821,12.25 8.77985147,10.7894286 8.77985147,10.7894286 C8.77985147,10.7894286 9.54066978,11.8212143 9.23671694,13.4347857 C10.5810997,11.8739286 10.8338737,9.38735714 10.6316545,8.43464286 C13.6699347,10.6499286 14.9681316,15.4456429 13.2186864,19 C22.5238875,13.5061429 15.532348,5.28657143 14.3152884,4.36021429 C14.7209749,5.28592857 14.7977433,6.85385714 13.9782565,7.61435714 C12.5908085,2.125 9.15994856,1 9.15994856,1 C9.56563511,3.83114286 7.68949086,6.9265 5.88012887,9.2395 C5.81646728,8.11064286 5.7490609,7.3315 5.18047561,6.2515 C5.05252831,8.30221429 3.55086396,9.97364286 3.14392914,12.0282143 C2.59281957,14.8105 3.55648115,16.8477143 7.21702207,18.9993571 L7.2157738,19 Z" id="Shape" fill="#FF3B30" fill-rule="nonzero"></path>
                        </g>
                    </g>
                </g>
            </g>
        </g>
    </g>
</svg>