<?xml version="1.0" encoding="UTF-8"?>
<svg width="20px" height="20px" viewBox="0 0 20 20" version="1.1" xmlns="http://www.w3.org/2000/svg" xmlns:xlink="http://www.w3.org/1999/xlink">
    <!-- Generator: Sketch 55.1 (78136) - https://sketchapp.com -->
    <title>种类榜</title>
    <desc>Created with Sketch.</desc>
    <g id="z" stroke="none" stroke-width="1" fill="none" fill-rule="evenodd">
        <g id="报表-公司" transform="translate(-717.000000, -2629.000000)">
            <g id="商品销售分析" transform="translate(158.000000, 2552.000000)">
                <g id="Group-20" transform="translate(559.000000, 74.000000)">
                    <g id="种类榜" transform="translate(0.000000, 3.000000)">
                        <rect id="Rectangle-9" x="0" y="0" width="20" height="20"></rect>
                        <path d="M16.9661916,6.084797 L2.97803084,6.084797 C2.43787932,6.084797 2,5.6180993 2,5.0423985 C2,4.46669771 2.43787932,4 2.97803084,4 L16.9661916,4 C17.5063431,4 17.9442224,4.46669771 17.9442224,5.0423985 C17.9442224,5.6180993 17.5063431,6.084797 16.9661916,6.084797 Z M2.97803084,11.5248511 C2.45222329,11.5042396 2.03594691,11.0439487 2.03594691,10.483157 C2.03594691,9.92236524 2.45222329,9.46207433 2.97803084,9.4414628 L16.9661916,9.4414628 C17.3239443,9.42743898 17.6602991,9.62286056 17.843082,9.95093472 C18.025865,10.2790089 18.025865,10.687305 17.843082,11.0153792 C17.6602991,11.3434533 17.3239443,11.5388749 16.9661916,11.5248511 L2.97803084,11.5248511 Z M2.97803084,16.9649053 C2.45222289,16.9442943 2.03594594,16.4840032 2.03594594,15.9232111 C2.03594594,15.362419 2.45222289,14.9021279 2.97803084,14.8815169 L16.9661916,14.8815169 C17.3239441,14.8674935 17.6602985,15.0629151 17.8430812,15.3909891 C18.025864,15.7190632 18.025864,16.127359 17.8430812,16.455433 C17.6602985,16.783507 17.3239441,16.9789287 16.9661916,16.9649053 L2.97803084,16.9649053 Z" id="Shape" fill="#258FF8" fill-rule="nonzero"></path>
                    </g>
                </g>
            </g>
        </g>
    </g>
</svg>