<?xml version="1.0" encoding="UTF-8"?>
<svg width="13px" height="14px" viewBox="0 0 13 14" version="1.1" xmlns="http://www.w3.org/2000/svg" xmlns:xlink="http://www.w3.org/1999/xlink">
    <!-- Generator: Sketch 56.2 (81672) - https://sketch.com -->
    <title>Combined Shape</title>
    <desc>Created with Sketch.</desc>
    <g id="营业概况" stroke="none" stroke-width="1" fill="none" fill-rule="evenodd">
        <g id="报表-公司" transform="translate(-339.000000, -509.000000)" fill="#FF7373">
            <g id="编组-18" transform="translate(158.000000, 210.000000)">
                <g id="提示" transform="translate(165.000000, 285.000000)">
                    <path d="M16.8235294,14 L28.1764706,14 C28.6312933,14 29,14.3687067 29,14.8235294 L29,27.1764706 C29,27.6312933 28.6312933,28 28.1764706,28 L16.8235294,28 C16.3687067,28 16,27.6312933 16,27.1764706 L16,14.8235294 C16,14.3687067 16.3687067,14 16.8235294,14 Z M19.0551471,17.2941176 C18.71403,17.2941176 18.4375,17.5706477 18.4375,17.9117647 C18.4375,18.2528818 18.71403,18.5294118 19.0551471,18.5294118 L25.9448529,18.5294118 C26.28597,18.5294118 26.5625,18.2528818 26.5625,17.9117647 C26.5625,17.5706477 26.28597,17.2941176 25.9448529,17.2941176 L19.0551471,17.2941176 Z M19.0551471,20.5882353 C18.71403,20.5882353 18.4375,20.8647653 18.4375,21.2058824 C18.4375,21.5469994 18.71403,21.8235294 19.0551471,21.8235294 L25.9448529,21.8235294 C26.28597,21.8235294 26.5625,21.5469994 26.5625,21.2058824 C26.5625,20.8647653 26.28597,20.5882353 25.9448529,20.5882353 L19.0551471,20.5882353 Z M19.0551471,23.8823529 C18.71403,23.8823529 18.4375,24.1588829 18.4375,24.5 C18.4375,24.8411171 18.71403,25.1176471 19.0551471,25.1176471 L23.5073529,25.1176471 C23.84847,25.1176471 24.125,24.8411171 24.125,24.5 C24.125,24.1588829 23.84847,23.8823529 23.5073529,23.8823529 L19.0551471,23.8823529 Z" id="Combined-Shape"></path>
                </g>
            </g>
        </g>
    </g>
</svg>