<?xml version="1.0" encoding="UTF-8"?>
<svg width="64px" height="64px" viewBox="0 0 64 64" version="1.1" xmlns="http://www.w3.org/2000/svg" xmlns:xlink="http://www.w3.org/1999/xlink">
    <!-- Generator: Sketch 59 (86127) - https://sketch.com -->
    <title>icon/赠送金额</title>
    <desc>Created with Sketch.</desc>
    <g id="报表-赠品统计报表" stroke="none" stroke-width="1" fill="none" fill-rule="evenodd">
        <g id="销售报表-商品做法统计表" transform="translate(-231.000000, -248.000000)">
            <g id="ic/赠送金额" transform="translate(231.000000, 248.000000)">
                <g>
                    <rect id="矩形" fill="#F7B500" opacity="0.157528832" x="0" y="0" width="64" height="64" rx="6"></rect>
                    <g id="money-collect-fill" transform="translate(20.000000, 20.000000)" fill-rule="nonzero">
                        <rect id="矩形" fill="#000000" opacity="0" x="0" y="0" width="24" height="24"></rect>
                        <path d="M21.3632812,16.3992187 C21.328125,16.3007812 21.2203125,16.2515625 21.121875,16.2867187 L19.6875,16.809375 L19.6875,4.1953125 C19.6875,3.3140625 18.975,2.6015625 18.09375,2.6015625 L5.90625,2.6015625 C5.025,2.6015625 4.3125,3.3140625 4.3125,4.1953125 L4.3125,16.809375 L2.87578125,16.2867187 C2.8546875,16.2796875 2.83359375,16.275 2.8125,16.275 C2.709375,16.275 2.625,16.359375 2.625,16.4625 L2.625,17.859375 C2.625,17.9367187 2.67421875,18.0070312 2.74921875,18.0351562 L11.7421875,21.3070312 C11.9085938,21.3679688 12.0890625,21.3679688 12.2554688,21.3070312 L21.2507812,18.0375 C21.3257813,18.009375 21.375,17.9390625 21.375,17.8617188 L21.375,16.4648438 C21.375,16.4414062 21.3703125,16.4203125 21.3632812,16.3992187 Z M15.6492188,7.56328125 L13.21875,12.0539062 L14.56875,12.0539062 C14.671875,12.0539062 14.75625,12.1382812 14.75625,12.2414062 L14.75625,12.8765625 C14.75625,12.9796875 14.671875,13.0640625 14.56875,13.0640625 L12.7804688,13.0640625 L12.7804688,13.978125 L14.56875,13.978125 C14.671875,13.978125 14.75625,14.0625 14.75625,14.165625 L14.75625,14.8007812 C14.75625,14.9039062 14.671875,14.9882812 14.56875,14.9882812 L12.7804688,14.9882812 L12.7804688,16.4765625 C12.7804688,16.5796875 12.6960938,16.6640625 12.5929688,16.6640625 L11.4234375,16.6640625 C11.3203125,16.6640625 11.2359375,16.5796875 11.2359375,16.4765625 L11.2359375,14.990625 L9.4546875,14.990625 C9.3515625,14.990625 9.2671875,14.90625 9.2671875,14.803125 L9.2671875,14.1679688 C9.2671875,14.0648437 9.3515625,13.9804688 9.4546875,13.9804688 L11.2359375,13.9804688 L11.2359375,13.0664062 L9.4546875,13.0664062 C9.3515625,13.0664062 9.2671875,12.9820312 9.2671875,12.8789062 L9.2671875,12.24375 C9.2671875,12.140625 9.3515625,12.05625 9.4546875,12.05625 L10.790625,12.05625 L8.35546875,7.565625 C8.30625,7.4765625 8.3390625,7.36171875 8.43046875,7.3125 C8.45859375,7.29609375 8.4890625,7.2890625 8.51953125,7.2890625 L9.825,7.2890625 C9.8953125,7.2890625 9.95859375,7.32890625 9.99140625,7.3921875 L11.9765625,11.3484375 L12.0539062,11.3484375 L14.0390625,7.3921875 C14.0695312,7.32890625 14.1351563,7.2890625 14.2054688,7.2890625 L15.4828125,7.2890625 C15.5859375,7.2890625 15.6703125,7.3734375 15.6726563,7.47421875 C15.6726563,7.5046875 15.6632813,7.53515625 15.6492188,7.56328125 Z" id="形状" fill="#F7B500"></path>
                    </g>
                </g>
            </g>
        </g>
    </g>
</svg>