<?xml version="1.0" encoding="UTF-8"?>
<svg width="64px" height="64px" viewBox="0 0 64 64" version="1.1" xmlns="http://www.w3.org/2000/svg" xmlns:xlink="http://www.w3.org/1999/xlink">
    <!-- Generator: Sketch 59 (86127) - https://sketch.com -->
    <title>矩形备份</title>
    <desc>Created with Sketch.</desc>
    <g id="报表-赠品统计报表" stroke="none" stroke-width="1" fill="none" fill-rule="evenodd">
        <g id="销售报表-商品做法统计表" transform="translate(-591.000000, -248.000000)">
            <g id="编组-9" transform="translate(559.000000, 220.000000)">
                <g id="icon/赠送数量" transform="translate(32.000000, 28.000000)">
                    <g>
                        <rect id="矩形备份" fill="#1890FF" opacity="0.157528832" x="0" y="0" width="64" height="64" rx="6"></rect>
                        <g id="gift-fill" transform="translate(20.000000, 20.000000)" fill-rule="nonzero">
                            <rect id="矩形" fill="#000000" opacity="0" x="0" y="0" width="24" height="24"></rect>
                            <path d="M3.75,20.953125 C3.75,21.3679688 4.08515625,21.703125 4.5,21.703125 L11.203125,21.703125 L11.203125,12.890625 L3.75,12.890625 L3.75,20.953125 Z M12.796875,21.703125 L19.5,21.703125 C19.9148438,21.703125 20.25,21.3679688 20.25,20.953125 L20.25,12.890625 L12.796875,12.890625 L12.796875,21.703125 Z M20.625,7.265625 L17.165625,7.265625 C17.484375,6.7640625 17.671875,6.16875 17.671875,5.53125 C17.671875,3.74765625 16.2210938,2.296875 14.4375,2.296875 C13.4671875,2.296875 12.5929687,2.728125 12,3.4078125 C11.4070312,2.728125 10.5328125,2.296875 9.5625,2.296875 C7.77890625,2.296875 6.328125,3.74765625 6.328125,5.53125 C6.328125,6.16875 6.51328125,6.7640625 6.834375,7.265625 L3.375,7.265625 C2.96015625,7.265625 2.625,7.60078125 2.625,8.015625 L2.625,11.296875 L11.203125,11.296875 L11.203125,7.265625 L12.796875,7.265625 L12.796875,11.296875 L21.375,11.296875 L21.375,8.015625 C21.375,7.60078125 21.0398437,7.265625 20.625,7.265625 Z M11.203125,7.171875 L9.5625,7.171875 C8.6578125,7.171875 7.921875,6.4359375 7.921875,5.53125 C7.921875,4.6265625 8.6578125,3.890625 9.5625,3.890625 C10.4671875,3.890625 11.203125,4.6265625 11.203125,5.53125 L11.203125,7.171875 Z M14.4375,7.171875 L12.796875,7.171875 L12.796875,5.53125 C12.796875,4.6265625 13.5328125,3.890625 14.4375,3.890625 C15.3421875,3.890625 16.078125,4.6265625 16.078125,5.53125 C16.078125,6.4359375 15.3421875,7.171875 14.4375,7.171875 Z" id="形状" fill="#1890FF"></path>
                        </g>
                    </g>
                </g>
            </g>
        </g>
    </g>
</svg>