<?xml version="1.0" encoding="UTF-8"?>
<svg width="184px" height="110px" viewBox="0 0 184 110" version="1.1" xmlns="http://www.w3.org/2000/svg" xmlns:xlink="http://www.w3.org/1999/xlink">
    <!-- Generator: Sketch 49.1 (51147) - http://www.bohemiancoding.com/sketch -->
    <title>空状态</title>
    <desc>Created with Sketch.</desc>
    <defs>
        <path d="M5.67123288,60.4760184 C7.58319166,52.7649994 31.0586849,46.6721801 59.7372597,46.6721801 C88.4158345,46.6721801 111.891328,52.7649994 113.803287,60.4760184 C104.180075,65.3670034 83.5874974,68.7468598 59.7372597,68.7468598 C35.8870221,68.7468598 15.2944445,65.3670034 5.67123288,60.4760184 Z" id="path-1"></path>
        <linearGradient x1="50%" y1="7.14285714%" x2="50%" y2="100%" id="linearGradient-3">
            <stop stop-color="#263F70" offset="0%"></stop>
            <stop stop-color="#0F1128" offset="100%"></stop>
        </linearGradient>
    </defs>
    <g id="Page-1" stroke="none" stroke-width="1" fill="none" fill-rule="evenodd">
        <g id="首页_员工首页_空状态" transform="translate(-476.000000, -470.000000)">
            <g id="Group-3" transform="translate(83.000000, 310.000000)">
                <g id="空状态" transform="translate(393.000000, 160.000000)">
                    <g id="Group-20">
                        <polygon id="Triangle-Copy" fill="#D8D8D8" points="34.0273973 14.4641711 42.2191781 38.3614973 25.8356164 38.3614973"></polygon>
                        <polygon id="Triangle" fill="#E9E9E9" points="16.0684932 0 32.1369863 46.5368984 0 46.5368984"></polygon>
                        <polygon id="Triangle-Copy-2" fill="#E9E9E9" points="167.931507 9.43315508 184 67.9187166 151.863014 67.9187166"></polygon>
                    </g>
                    <g id="on2-生无可恋" transform="translate(30.000000, 41.000000)">
                        <path d="M50.1459623,68.5567233 C44.7521619,64.9931478 41.1949949,58.8835226 41.1949949,51.9448041 C41.1949949,47.5444991 42.625572,43.4776286 45.0479191,40.1820872 C49.7858743,39.8897836 54.7495724,39.7344236 59.8630137,39.7344236 C65.9555828,39.7344236 71.8355725,39.954977 77.3744322,40.364933 C79.7161707,43.6275258 81.0945444,47.6255314 81.0945444,51.9448041 C81.0945444,58.8031177 77.6193396,64.8514414 72.3303423,68.4318177 C68.3088536,68.6382579 64.1382714,68.7468598 59.8630137,68.7468598 C56.5544427,68.7468598 53.3085621,68.6818179 50.145959,68.5567226 Z" id="Combined-Shape" fill="#D6DDE5"></path>
                        <g id="Oval-4" transform="translate(5.671233, 46.672180)"></g>
                        <g id="Group-4">
                            <ellipse id="Oval-5" fill="#E9E9E9" cx="59.8630137" cy="54.2406417" rx="59.8630137" ry="14.5062181"></ellipse>
                            <mask id="mask-2" fill="white">
                                <use xlink:href="#path-1"></use>
                            </mask>
                            <use id="Mask" fill="#DFDFDF" xlink:href="#path-1"></use>
                            <ellipse id="Oval-4" fill="#D1D1D1" mask="url(#mask-2)" cx="61.0445205" cy="54.602248" rx="17.8809092" ry="17.8863573"></ellipse>
                            <g id="on2-生无可恋-copy" transform="translate(22.054795, 0.000000)">
                                <path d="M56.0404715,57.8317031 C56.0404715,57.8317031 59.994527,59.645804 58.9419409,62.2901143 C57.8893548,64.9344245 51.1728556,63.301383 51.1728556,63.301383" id="Path-2" fill="#D1D1D1" transform="translate(55.146500, 60.815881) scale(1, -1) rotate(-46.000000) translate(-55.146500, -60.815881) "></path>
                                <path d="M23.4338756,57.8317031 C23.4338756,57.8317031 27.3879312,59.645804 26.3353451,62.2901143 C25.2827589,64.9344245 18.5662598,63.301383 18.5662598,63.301383" id="Path-2" fill="#D1D1D1" transform="translate(22.539904, 60.815881) scale(-1, -1) rotate(-50.000000) translate(-22.539904, -60.815881) "></path>
                                <path d="M67.5821918,48.5353315 C73.3244401,48.5353315 76.2465753,43.8789012 76.2465753,38.1349033 C76.2465753,32.3909055 73.3244401,27.7344752 67.5821918,27.7344752 C61.8399435,27.7344752 58.9178082,32.3909055 58.9178082,38.1349033 C58.9178082,43.8789012 61.8399435,48.5353315 67.5821918,48.5353315 Z" id="Oval-4" fill="#BCBCBC"></path>
                                <path d="M67.5821918,46.8019268 C73.3244401,46.8019268 76.2465753,43.8789012 76.2465753,38.1349033 C76.2465753,32.3909055 73.3244401,27.7344752 67.5821918,27.7344752 C61.8399435,27.7344752 58.9178082,32.3909055 58.9178082,38.1349033 C58.9178082,43.8789012 61.8399435,46.8019268 67.5821918,46.8019268 Z" id="Oval-4" fill="#D1D1D1"></path>
                                <path d="M8.66438356,48.5353315 C14.4066319,48.5353315 17.3287671,43.8789012 17.3287671,38.1349033 C17.3287671,32.3909055 14.4066319,27.7344752 8.66438356,27.7344752 C2.92213527,27.7344752 0,32.3909055 0,38.1349033 C0,43.8789012 2.92213527,48.5353315 8.66438356,48.5353315 Z" id="Oval-4" fill="#BCBCBC" transform="translate(8.664384, 38.134903) scale(-1, 1) translate(-8.664384, -38.134903) "></path>
                                <path d="M8.66438356,46.8019268 C14.4066319,46.8019268 17.3287671,43.8789012 17.3287671,38.1349033 C17.3287671,32.3909055 14.4066319,27.7344752 8.66438356,27.7344752 C2.92213527,27.7344752 0,32.3909055 0,38.1349033 C0,43.8789012 2.92213527,46.8019268 8.66438356,46.8019268 Z" id="Oval-4" fill="#D1D1D1" transform="translate(8.664384, 37.268201) scale(-1, 1) translate(-8.664384, -37.268201) "></path>
                                <path d="M38.989726,67.6027832 C48.0816192,67.6027832 55.4520548,63.6969113 55.4520548,54.602248 C55.4520548,45.5075847 48.0816192,38.1349033 38.989726,38.1349033 C29.8978329,38.1349033 22.5273973,45.5075847 22.5273973,54.602248 C22.5273973,63.6969113 29.8978329,67.6027832 38.989726,67.6027832 Z" id="Oval-4" fill="#D1D1D1"></path>
                                <path d="M38.1232877,62.4025691 C59.3263508,62.885632 71.0479452,51.1240159 71.0479452,32.9346892 C71.0479452,14.7453626 56.3070739,0 38.1232877,0 C19.9395014,0 5.19863014,14.7453626 5.19863014,32.9346892 C5.19863014,51.1240159 16.9202246,61.9195061 38.1232877,62.4025691 Z" id="Oval-4" fill="#D1D1D1"></path>
                                <path d="M38.1232877,60.6691644 C54.3929912,60.6691644 67.5821918,52.6761593 67.5821918,36.4014986 C67.5821918,20.126838 54.3929912,8.66702349 38.1232877,8.66702349 C21.8535842,8.66702349 8.66438356,20.126838 8.66438356,36.4014986 C8.66438356,52.6761593 21.8535842,60.6691644 38.1232877,60.6691644 Z" id="Oval-4" fill="#D1D1D1"></path>
                                <path d="M38.1232877,57.202355 C54.3929912,57.202355 65.8493151,52.6761593 65.8493151,36.4014986 C65.8493151,20.126838 54.3929912,10.4004282 38.1232877,10.4004282 C21.8535842,10.4004282 8.66438356,20.126838 8.66438356,36.4014986 C8.66438356,52.6761593 21.8535842,57.202355 38.1232877,57.202355 Z" id="Oval-4" fill="#FFFFFF"></path>
                                <g id="小助手拉出" transform="translate(38.036731, 41.168094) scale(-1, 1) translate(-38.036731, -41.168094) translate(17.036731, 34.668094)">
                                    <g id="面部">
                                        <ellipse id="Oval-6" fill="#EDEDED" transform="translate(38.034071, 10.236813) scale(1, -1) rotate(7.000000) translate(-38.034071, -10.236813) " cx="38.0340714" cy="10.2368125" rx="2.80745425" ry="1.56978904"></ellipse>
                                        <ellipse id="Oval-6" fill="#EDEDED" transform="translate(3.376537, 10.236813) scale(-1, -1) rotate(7.000000) translate(-3.376537, -10.236813) " cx="3.37653716" cy="10.2368125" rx="2.80745425" ry="1.56978904"></ellipse>
                                        <path d="M28.4652109,2.18328777 C28.4652109,2.18328777 30.9697306,3.93887927 33.3585016,4.59227541 C35.7472727,5.24567155 38.8624712,5.36604356 38.8624712,5.36604356" id="Line" stroke="url(#linearGradient-3)" stroke-width="0.8" stroke-linecap="round" stroke-linejoin="round" transform="translate(33.663841, 3.774666) rotate(-8.000000) translate(-33.663841, -3.774666) "></path>
                                        <path d="M29.8720643,2.81381046 L28.4852023,4.03532595" id="Line" stroke="url(#linearGradient-3)" stroke-width="0.8" stroke-linecap="round" stroke-linejoin="round"></path>
                                        <path d="M1.73615944,2.21264537 C1.73615944,2.21264537 4.32234996,3.93564795 6.787518,4.60994081 C9.25268604,5.28423367 12.1334197,4.61041745 12.1334197,4.61041745" id="Line" stroke="url(#linearGradient-3)" stroke-width="0.8" stroke-linecap="round" stroke-linejoin="round" transform="translate(6.934790, 3.561198) scale(-1, 1) rotate(-8.000000) translate(-6.934790, -3.561198) "></path>
                                        <path d="M12.0228735,2.81381046 L10.6360115,4.03532595" id="Line" stroke="url(#linearGradient-3)" stroke-width="0.8" stroke-linecap="round" stroke-linejoin="round" transform="translate(11.156435, 3.680513) scale(-1, 1) translate(-11.156435, -3.680513) "></path>
                                    </g>
                                </g>
                                <path d="M27.595663,13.5724853 C25.1566606,14.5391634 22.9576884,15.9811609 21.1129486,17.7842407" id="Oval-4" stroke="#FFFFFF" stroke-width="0.8" stroke-linecap="round" stroke-linejoin="round" transform="translate(24.354306, 15.678363) rotate(2.000000) translate(-24.354306, -15.678363) "></path>
                                <path d="M19.3331735,19.416372 C19.152208,19.3766866 18.8442438,19.3992239 18.5574051,19.4617103" id="Oval-4" stroke="#FFFFFF" stroke-width="0.8" stroke-linecap="round" stroke-linejoin="round" transform="translate(19.057405, 19.896596) rotate(-40.000000) translate(-19.057405, -19.896596) "></path>
                            </g>
                        </g>
                    </g>
                </g>
            </g>
        </g>
    </g>
</svg>