<?xml version="1.0" encoding="UTF-8"?>
<svg width="24px" height="24px" viewBox="0 0 24 24" version="1.1" xmlns="http://www.w3.org/2000/svg" xmlns:xlink="http://www.w3.org/1999/xlink">
    <!-- Generator: Sketch 59 (86127) - https://sketch.com -->
    <title>Group 21备份 3</title>
    <desc>Created with Sketch.</desc>
    <g id="营业日报" stroke="none" stroke-width="1" fill="none" fill-rule="evenodd">
        <g transform="translate(-597.000000, -283.000000)" id="Group-21备份-3">
            <g transform="translate(597.000000, 283.000000)">
                <circle id="Oval-2" fill="#FFBF00" cx="12" cy="12" r="12"></circle>
                <path d="M18,9.639015 L18,13.4979309 C18,13.5563994 17.9776759,13.6201832 17.9351027,13.6878326 L17.8924314,13.7464606 C17.7556822,13.5242384 17.5022102,13.375 17.2121212,13.375 C16.7769878,13.375 16.4242424,13.7107864 16.4242424,14.125 C16.4242424,14.2999861 16.4871959,14.4609754 16.5927194,14.5885648 C16.5291574,14.6170759 16.4633637,14.6450939 16.3959949,14.672767 C16.303044,14.3571723 15.9981866,14.125 15.6363636,14.125 C15.2012302,14.125 14.8484848,14.4607864 14.8484848,14.875 C14.8484848,14.9721751 14.8678992,15.0650337 14.903237,15.1502529 L14.8432356,15.1629561 C14.7979234,14.7897485 14.4648109,14.5 14.0606061,14.5 C13.6254726,14.5 13.2727273,14.8357864 13.2727273,15.25 C13.2727273,15.3024811 13.2783899,15.3537033 13.2891653,15.403143 C13.080407,15.4191816 12.8690921,15.4273889 12.6581638,15.4273889 L12.6581638,15.4273889 L12.6581638,16.070542 C13.323979,16.7136937 14.6556078,16.9285072 14.6556078,17.3568468 C14.6556078,17.6636307 13.4717836,18 11.992344,18 C10.5128981,18 9.32908016,17.6835689 9.32908016,17.3568468 C9.32908016,16.9285072 10.6593778,16.714981 11.3265241,16.070542 L11.3265241,16.070542 L11.3265241,15.4273889 C11.0403003,15.4271648 10.7637024,15.4172586 10.4972199,15.3989328 L10.5079591,15.3517706 L10.5079591,15.3517706 L10.5151515,15.25 C10.5151515,14.8357864 10.1624062,14.5 9.72727273,14.5 C9.29213929,14.5 8.93939394,14.8357864 8.93939394,15.25 L8.94383711,15.1809737 C8.7961618,15.1487291 8.65344806,15.1139293 8.51584112,15.0769489 C8.5354419,15.0123458 8.54545455,14.944786 8.54545455,14.875 C8.54545455,14.4607864 8.1927092,14.125 7.75757576,14.125 C7.45623335,14.125 7.19440394,14.2860418 7.06188238,14.5226478 C6.82314386,14.3966178 6.62199368,14.2657492 6.46215084,14.1373751 C6.53432799,14.0246977 6.57575758,13.8919544 6.57575758,13.75 C6.57575758,13.4109346 6.33939445,13.1244206 6.0149595,13.0316199 L6.01532063,9.639015 C6.01532063,10.2821682 8.68257933,11.568473 11.992344,11.568473 C15.3021242,11.568473 18,10.2821682 18,9.639015 L18,9.639015 Z M11.992344,6 C15.3014376,6 17.9999844,6.89011775 17.9999844,8.21051065 C17.9999844,9.53090807 15.3021086,10.5786037 11.992344,10.5824741 C8.68190832,10.5863216 5.99535139,9.60936767 6.00000604,8.27032384 C6.004678,6.94993697 8.68325035,6 11.992344,6 Z" id="形状结合" fill="#FFFFFF" fill-rule="nonzero"></path>
            </g>
        </g>
    </g>
</svg>