<?xml version="1.0" encoding="UTF-8"?>
<svg width="24px" height="24px" viewBox="0 0 24 24" version="1.1" xmlns="http://www.w3.org/2000/svg" xmlns:xlink="http://www.w3.org/1999/xlink">
    <!-- Generator: Sketch 59 (86127) - https://sketch.com -->
    <title>Group 21备份 4</title>
    <desc>Created with Sketch.</desc>
    <g id="营业日报" stroke="none" stroke-width="1" fill="none" fill-rule="evenodd">
        <g transform="translate(-213.000000, -283.000000)" id="Group-21备份-4">
            <g transform="translate(213.000000, 283.000000)">
                <g id="编组-6">
                    <circle id="Oval-2" fill="#52C41A" cx="12" cy="12" r="12"></circle>
                    <path d="M16,7 C16.5522847,7 17,7.44771525 17,8 L17,17 C17,17.5522847 16.5522847,18 16,18 L8,18 C7.44771525,18 7,17.5522847 7,17 L7,8 C7,7.44771525 7.44771525,7 8,7 L16,7 Z M15,13 L9,13 L9,14 L15,14 L15,13 Z M14,10 L9,10 L9,11 L14,11 L14,10 Z" id="形状结合" fill="#FFFFFF"></path>
                </g>
            </g>
        </g>
    </g>
</svg>