<?xml version="1.0" encoding="UTF-8"?>
<svg width="24px" height="24px" viewBox="0 0 24 24" version="1.1" xmlns="http://www.w3.org/2000/svg" xmlns:xlink="http://www.w3.org/1999/xlink">
    <!-- Generator: Sketch 59 (86127) - https://sketch.com -->
    <title>编组 14</title>
    <desc>Created with Sketch.</desc>
    <g id="营业日报" stroke="none" stroke-width="1" fill="none" fill-rule="evenodd">
        <g transform="translate(-981.000000, -283.000000)" id="编组-14">
            <g transform="translate(981.000000, 283.000000)">
                <g id="Group-21备份-2" fill="#258FF8">
                    <circle id="Oval-2" cx="12" cy="12" r="12"></circle>
                </g>
                <g id="人" transform="translate(6.000000, 5.000000)" fill-rule="nonzero">
                    <rect id="矩形" fill="#000000" opacity="0" x="0" y="0" width="12" height="12"></rect>
                    <path d="M10.6224334,8.49147777 C9.95811205,8.18425427 8.97232344,7.39286673 7.51270617,7.12092971 C7.88599738,6.70528221 8.1685032,6.05523418 8.45911234,5.28518548 C8.62752837,4.83889667 8.59866975,4.45845098 8.59866975,3.91677856 C8.59866975,3.51669969 8.67108525,2.874563 8.5756343,2.52166182 C8.25368759,1.32903412 7.4402322,1 6.48712587,1 C5.5332361,1 4.71878681,1.33058251 4.39744814,2.52525458 C4.30276893,2.87706705 4.37537152,3.51772792 4.37537152,3.91683905 C4.37537152,4.45968485 4.34705078,4.84142491 4.51591115,5.28841534 C4.80875368,6.06241971 5.08716691,6.71153627 5.45901986,7.12544184 C4.0111074,7.40233856 3.03272054,8.18781074 2.37262045,8.4940544 C1.00670016,9.12775959 1,9.82152561 1,9.82152561 L1,11 L12,10.9986452 L12,9.82152561 C12,9.82152561 11.9936039,9.12537651 10.6224451,8.49147777 L10.6224334,8.49147777 Z" id="路径" fill="#FFFFFF"></path>
                </g>
            </g>
        </g>
    </g>
</svg>