<?xml version="1.0" encoding="UTF-8"?>
<svg width="24px" height="24px" viewBox="0 0 24 24" version="1.1" xmlns="http://www.w3.org/2000/svg" xmlns:xlink="http://www.w3.org/1999/xlink">
    <!-- Generator: Sketch 59 (86127) - https://sketch.com -->
    <title>退</title>
    <desc>Created with Sketch.</desc>
    <g id="报表-商品销售统计" stroke="none" stroke-width="1" fill="none" fill-rule="evenodd">
        <g id="报表-商品销售统计-默认" transform="translate(-600.000000, -431.000000)">
            <g id="Card-4备份-2" transform="translate(576.000000, 411.000000)">
                <g id="退" transform="translate(24.000000, 20.000000)">
                    <circle id="Oval-2" stroke="#FA8C16" stroke-width="2" cx="12" cy="12" r="11"></circle>
                    <g id="退(3)" transform="translate(6.000000, 6.000000)" fill="#FA8C16" fill-rule="nonzero">
                        <path d="M3.39297474,9.34478851 C3.39297474,9.38916161 3.40654663,9.42881418 3.43369043,9.46374621 C3.46955903,9.51756041 3.61884992,9.62707703 3.8815631,9.79512839 C4.02600689,9.88387462 4.17529778,9.96317975 4.32943577,10.0330438 C4.48357376,10.1029079 4.65031423,10.165219 4.83256546,10.2180891 C5.01384725,10.2785121 5.20579268,10.3276057 5.40937115,10.3625378 C5.61294963,10.3974698 5.82816117,10.4239049 6.05403635,10.4418429 C6.27991153,10.459781 6.57364621,10.4729985 6.9362098,10.4814955 C7.29780397,10.4909366 7.72725763,10.4956571 8.22554021,10.4956571 C8.73157816,10.4956571 9.21144173,10.4890484 9.66319209,10.4758308 C10.1159119,10.4626133 10.5502126,10.4475075 10.9670638,10.4295695 C11.3829456,10.4116314 11.6970381,10.3984139 11.9103108,10.3899169 C12.1226141,10.3804758 12.2379752,10.3766994 12.2554248,10.3766994 C12.4279818,10.3578172 12.5724256,10.3974698 12.6897256,10.4956571 C12.8070256,10.5929003 12.8913652,10.711858 12.9408057,10.8525302 C12.9912156,10.9932024 13.0086652,11.1414275 12.9960627,11.2953172 C12.9815214,11.449207 12.9349892,11.579494 12.8535578,11.6852342 C12.7634016,11.8089124 12.6451322,11.891994 12.5016578,11.9363671 C12.3649694,11.9807402 11.9665372,12.0071752 11.3073307,12.0156722 C10.63843,12.0421073 10.0228474,12.0553248 9.46155246,12.0553248 C8.35738152,12.0553248 7.43255356,12.0354985 6.68706853,11.99679 C5.93964467,11.9571375 5.36380838,11.8929381 4.95665141,11.805136 C4.14233746,11.6465257 3.49476401,11.3378021 3.01586985,10.8799094 C2.90729465,10.7751133 2.79871946,10.7212991 2.69014426,10.7212991 C2.59029386,10.7212991 2.49044346,10.7562312 2.39156249,10.8270393 C2.31013109,10.9063444 2.1336964,11.1178248 1.86225843,11.4614804 C1.60923944,11.805136 1.42795765,12.0118958 1.31938246,12.082704 C1.2166238,12.1516239 1.07702711,12.1875 0.895745315,12.1875 C0.805589134,12.1875 0.708646987,12.1676737 0.603949482,12.1280211 C0.499251977,12.0883686 0.404248675,12.0326662 0.318939595,11.9628021 C0.232661103,11.8919939 0.16286276,11.8089124 0.108575152,11.7116692 C0.0542875658,11.6134819 0.0271437621,11.5086858 0.0271437621,11.3944486 C0.0271437621,11.2613293 0.0591346669,11.1385951 0.122147065,11.0234139 C0.194853665,10.8997356 0.380013148,10.6797583 0.678594927,10.3625377 C0.831763505,10.2039275 0.997534563,10.0453172 1.17396924,9.88670692 C1.35040391,9.72809666 1.52877745,9.57420693 1.71005924,9.42409362 C1.75465262,9.38066462 1.77791874,9.32685041 1.77791874,9.26548336 L1.77791876,5.77700151 C1.77791876,5.65426737 1.76240802,5.5721299 1.73041712,5.53247734 C1.69842621,5.49282477 1.64219978,5.47299848 1.56076837,5.47299848 L0.827885837,5.47299848 C0.583591645,5.47299848 0.383890858,5.40219032 0.23072228,5.26151811 C0.0765842893,5.1208459 0,4.94429756 0,4.73281719 C0,4.52133683 0.0765842893,4.34478849 0.23072228,4.20411628 C0.383890858,4.06344407 0.583591645,3.99263591 0.827885837,3.99263591 L2.30722284,3.99263591 C2.71437981,3.99263591 2.99745085,4.10970539 3.15546653,4.34290027 C3.31445165,4.57703925 3.39297476,4.9490181 3.39297476,5.45978094 L3.39297474,9.34478851 Z M3.71870032,1.79852717 C3.71870032,2.01850452 3.63242183,2.21676735 3.46083424,2.39331569 C3.29797146,2.5774169 3.11959792,2.67088367 2.92474423,2.67088367 C2.72989055,2.67088367 2.5602418,2.61706947 2.41579801,2.51227341 C2.07165344,2.25641993 1.46964276,1.88255286 0.610735449,1.38878398 C0.356747054,1.24716767 0.23072228,1.08383684 0.23072228,0.899735627 C0.23072228,0.811933517 0.249141293,0.714690311 0.285009866,0.608950128 C0.32087846,0.503209965 0.373227202,0.404078539 0.441086701,0.310611772 C0.5089462,0.217145004 0.592316435,0.14350453 0.692166839,0.08591389 C0.792017243,0.02832325 0.909317227,0 1.0450362,0 C1.31647418,0 1.70133447,0.150113288 2.19864762,0.449395764 C2.44294182,0.599509051 2.66009218,0.731684285 2.85009877,0.845921446 C3.04010535,0.961102705 3.20102931,1.06589879 3.33190118,1.163142 C3.46277306,1.2603852 3.56068462,1.35951663 3.62369702,1.46053625 C3.68670942,1.5625 3.71870032,1.67484894 3.71870032,1.79852717 Z M11.821124,5.52492446 C11.9025554,5.52492446 11.9907728,5.54663895 12.0848067,5.59101207 C12.1807794,5.63444108 12.2660884,5.69391994 12.3436421,5.76944863 C12.4202264,5.84403323 12.4842082,5.9280589 12.5326793,6.02058157 C12.5830892,6.11310423 12.6073248,6.20373866 12.6073248,6.29154077 C12.6073248,6.47658609 12.4919636,6.67012838 12.2622108,6.87311177 C12.0314885,7.07609516 11.6582613,7.34044561 11.1425291,7.66616313 C11.0698225,7.71053624 11.0339539,7.74735648 11.0339539,7.77851207 C11.0339539,7.80872356 11.0659448,7.84176735 11.1299266,7.87669938 C11.4915208,8.07968277 11.7930108,8.25056645 12.0324579,8.39218276 C12.271905,8.53379907 12.4512479,8.64803623 12.5685479,8.73583834 C12.8128421,8.89444861 12.9349892,9.07005284 12.9349892,9.26453926 C12.9349892,9.44958457 12.8487107,9.63935043 12.6771231,9.83383684 C12.5045661,10.0188822 12.3223149,10.1114048 12.1274612,10.1114048 C11.9335769,10.1114048 11.6912216,10.0226586 11.4013646,9.84705437 C10.1168813,9.05400301 8.64626908,8.23074018 6.9904974,7.37537763 C6.67349661,7.1988293 6.51548093,7.02322506 6.51548093,6.84667672 C6.51548093,6.6616314 6.60175942,6.47280965 6.77431643,6.27832324 C6.95559822,6.07628397 7.14075771,5.97432022 7.32979486,5.97432022 C7.44806425,5.97432022 7.56536424,6.00547581 7.68266422,6.06684289 L9.31226153,6.8863293 C9.41211193,6.94769638 9.479002,6.97885197 9.51584,6.97885197 C9.60599618,6.97885197 9.87258706,6.81646527 10.3156126,6.48980364 C10.7683324,6.15558914 10.9942076,5.97432026 10.9942076,5.94788521 C10.9942076,5.91295318 10.9273175,5.89501513 10.7906291,5.89501513 L6.05403633,5.89501513 C5.91831733,5.89501513 5.85045786,5.96110275 5.85045786,6.09327796 L5.85045786,8.30060425 C5.85045786,8.43277949 5.8979595,8.49886708 5.99199337,8.49886708 C6.08796608,8.49886708 6.3157801,8.45071754 6.67737426,8.35347433 C6.85865605,8.30060425 7.0060081,8.25528703 7.11846098,8.21563446 C7.23188328,8.1759819 7.32882542,8.14482631 7.41122623,8.12216769 C7.49265762,8.1013973 7.5595477,8.08251513 7.6148047,8.06929761 C7.66909229,8.0560801 7.72241046,8.04947132 7.77766748,8.04947132 C8.01226745,8.04947132 8.18870215,8.14671453 8.30697154,8.34025682 C8.53187729,8.70185047 8.54157151,8.99169187 8.33314591,9.21261332 C8.22554015,9.3183535 7.95797985,9.45996981 7.53337329,9.63557405 C7.0709593,9.82911634 6.62405606,9.95751514 6.18878588,10.0188822 C5.9629107,10.0538142 5.76999586,10.0793052 5.61198018,10.0981873 C5.4539645,10.1161254 5.32406203,10.1236783 5.22518106,10.1236783 C4.87328111,10.1236783 4.62413982,10.025491 4.47872662,9.82722812 C4.33331342,9.62896527 4.26157623,9.30419186 4.26157623,8.8557402 L4.26157623,1.50774168 C4.26157623,0.970543782 4.36530438,0.613670686 4.57469939,0.437122348 C4.78215556,0.260574009 5.24747781,0.1727719 5.97163557,0.1727719 L10.748944,0.1727719 C11.2191134,0.1727719 11.5584109,0.276623864 11.7668365,0.483383692 C11.975262,0.69014352 12.0789901,1.03191088 12.0789901,1.5077417 L12.0789901,4.53455438 C12.0789901,4.94807402 11.9927116,5.27851208 11.821124,5.52492446 Z M10.4910779,2.15540029 L10.4910779,1.90426736 C10.4910779,1.79852717 10.4765366,1.72205436 10.4503622,1.67296072 C10.4232184,1.62481117 10.3495424,1.60026434 10.2322424,1.60026434 L6.03949505,1.60026434 C5.96678845,1.60026434 5.91734796,1.62009064 5.89020416,1.6597432 C5.86306036,1.69939577 5.84948847,1.78058912 5.84948847,1.90426738 L5.84948847,2.15540031 C5.84948847,2.28757554 5.91734796,2.35366314 6.05306694,2.35366314 L10.2874994,2.35366314 C10.4232184,2.35366314 10.4910779,2.28757552 10.4910779,2.15540029 Z M10.4910779,4.1380287 L10.4910779,3.86046072 C10.4910779,3.72828548 10.4232184,3.66219789 10.2874994,3.66219789 L6.05306696,3.66219789 C5.91734796,3.66219789 5.84948849,3.7282855 5.84948849,3.86046072 L5.84948849,4.2569864 C5.84948849,4.38916163 5.91734798,4.45524923 6.05306696,4.45524923 L10.21964,4.45524923 C10.3999523,4.45524923 10.4910779,4.34856495 10.4910779,4.1380287 Z" id="形状"></path>
                    </g>
                </g>
            </g>
        </g>
    </g>
</svg>