<?xml version="1.0" encoding="UTF-8"?>
<svg width="24px" height="24px" viewBox="0 0 24 24" version="1.1" xmlns="http://www.w3.org/2000/svg" xmlns:xlink="http://www.w3.org/1999/xlink">
    <!-- Generator: Sketch 59 (86127) - https://sketch.com -->
    <title>销</title>
    <desc>Created with Sketch.</desc>
    <g id="报表-商品销售统计" stroke="none" stroke-width="1" fill="none" fill-rule="evenodd">
        <g id="报表-商品销售统计-默认" transform="translate(-222.000000, -427.000000)">
            <g id="Card-4备份" transform="translate(192.000000, 411.000000)">
                <g id="销" transform="translate(30.000000, 16.000000)">
                    <circle id="Oval-2" stroke="#258FF8" stroke-width="2" cx="12" cy="12" r="11"></circle>
                    <path d="M14.1370238,6 C14.324867,6 14.5033154,6.06100043 14.6723742,6.18300313 C14.8414331,6.30500582 14.9259613,6.50156277 14.9259613,6.77267987 L14.9259613,9.60583942 L15.1231957,9.60583942 C15.320431,9.22627547 15.4965314,8.85575433 15.651502,8.49426486 C15.8064727,8.13277539 15.949701,7.72158729 16.0811912,7.26068822 C16.1563285,7.00764559 16.2807728,6.82464429 16.4545277,6.71167883 C16.6282827,6.59871337 16.8325591,6.57386135 17.0673631,6.637122 C17.3115593,6.7094199 17.4500916,6.84271714 17.4829641,7.03701773 C17.5158367,7.23131832 17.4900086,7.50017208 17.4054792,7.84358707 C17.3303419,8.14181588 17.2270297,8.44004022 17.0955395,8.73826903 C16.9640492,9.03649784 16.8231689,9.32568508 16.6728944,9.60583942 C16.9170905,9.60583942 17.123715,9.61939507 17.2927738,9.64650678 C17.4618327,9.67361849 17.598017,9.73010037 17.7013308,9.81595412 C17.8046445,9.90180787 17.8797807,10.0305866 17.9267415,10.2022941 C17.9737023,10.3740016 17.9971823,10.6044476 17.9971823,10.8936392 L17.9971823,17.0208551 C18.0065745,17.3733073 17.9924865,17.6715316 17.9549178,17.915537 C17.9173492,18.1595424 17.846909,18.3560994 17.7435953,18.5052138 C17.6402815,18.6543282 17.5017492,18.7627734 17.3279943,18.8305527 C17.1542393,18.8983319 16.9358748,18.9322211 16.6728944,18.9322211 C16.4474825,18.9322211 16.1563299,18.9028505 15.7994278,18.8441084 C15.4425257,18.7853664 15.066845,18.6791805 14.6723742,18.5255474 C14.3812173,18.4171006 14.2074649,18.2612106 14.151112,18.0578728 C14.094759,17.854535 14.118239,17.6489409 14.2215528,17.4410845 C14.3436509,17.1790046 14.4868792,17.0389295 14.651242,17.0208551 C14.8156048,17.0027806 15.0245772,17.0344104 15.2781655,17.1157456 C15.7477736,17.2784158 16.0530142,17.3281199 16.1938966,17.2648592 C16.334779,17.2015986 16.4052191,17.0253751 16.4052191,16.7361835 L16.4052191,16.1803962 L12.2069445,16.1803962 L12.2069445,18.2137643 C12.2069445,18.5210304 12.1435484,18.7288837 12.0167542,18.8373306 C11.8899601,18.9457774 11.6997717,19 11.4461833,19 C11.192595,19 10.9906666,18.9457774 10.840392,18.8373306 C10.6901175,18.7288837 10.6149813,18.5210304 10.6149813,18.2137643 L10.6149813,10.8936392 C10.6149813,10.6586711 10.6478534,10.4666327 10.7135985,10.3175182 C10.7793436,10.1684038 10.8662198,10.046403 10.9742296,9.95151199 C11.0822395,9.85662101 11.2090318,9.78658347 11.3546102,9.74139729 C11.5001887,9.69621111 11.657505,9.6600627 11.8265639,9.63295099 C11.770211,9.60583928 11.7185549,9.56291305 11.6715941,9.50417101 C11.6402869,9.46500965 11.6152413,9.42886105 11.5964571,9.39572475 L11.5729769,9.34827946 C11.4790553,9.14042301 11.361655,8.92353259 11.2207726,8.69760167 C11.0798902,8.47167075 10.9155299,8.22766902 10.7276867,7.96558916 C10.56802,7.74869547 10.4858398,7.5363236 10.4811437,7.32846715 C10.4764476,7.12061071 10.6055879,6.94438724 10.8685684,6.79979145 C11.2536469,6.59193501 11.6058477,6.69586167 11.9251811,7.11157456 L12.1539733,7.45209625 C12.258789,7.61368091 12.3492346,7.76225167 12.4253111,7.89781022 L12.7383324,8.46715281 C12.7761944,8.53719103 12.8150836,8.60948868 12.8550003,8.68404588 C12.9301376,8.86479062 12.9559657,9.03875481 12.9324853,9.20594369 C12.9090049,9.37313257 12.8315207,9.50642981 12.7000305,9.60583942 L13.3480863,9.60583942 L13.3480863,6.77267987 C13.3480863,6.47445106 13.4349625,6.27111629 13.6087174,6.16266945 C13.7824724,6.05422261 13.9585727,6 14.1370238,6 Z M7.92414087,6.05422315 C8.1777292,6.0903721 8.3726136,6.20107658 8.50879992,6.38633994 C8.64498624,6.57160329 8.67551031,6.80882719 8.60037303,7.09801877 L8.43131499,7.66736184 L9.53019224,7.66736184 C9.7743884,7.66736184 9.9669248,7.73514009 10.1078072,7.87069864 C10.2486896,8.00625719 10.3191298,8.18248067 10.3191298,8.39937435 C10.3191298,8.62530527 10.2486896,8.80604729 10.1078072,8.94160584 C9.9669248,9.07716439 9.7743884,9.14494265 9.53019224,9.14494265 L7.89596453,9.14494265 L7.72690649,9.56517205 C7.67055353,9.7007306 7.60950541,9.83628712 7.54376029,9.97184567 L9.45975139,9.97184567 C9.70394755,9.97184567 9.89648395,10.0396239 10.0373664,10.1751825 C10.1782488,10.310741 10.2486889,10.4914831 10.2486889,10.717414 C10.2486889,10.9704566 10.1782488,11.1579764 10.0373664,11.2799791 C9.89648395,11.4019818 9.70394755,11.4629823 9.45975139,11.4629823 L8.48766767,11.4629823 L8.4735795,12.7914494 L9.51610407,12.7914494 C9.76030023,12.7914494 9.95283663,12.8388942 10.093719,12.9337852 C10.2346014,13.0286762 10.3050416,13.2342702 10.3050416,13.5505735 C10.3050416,13.8668768 10.2346014,14.0702116 10.093719,14.1605839 C9.95283663,14.2509563 9.76030023,14.2961418 9.51610407,14.2961418 L8.4735795,14.2961418 L8.4735795,16.0312826 C8.4735795,16.3759025 8.55117845,16.4252458 8.70637837,16.1793125 L8.78351923,16.0448384 C8.9807546,15.6833489 9.18268301,15.4529028 9.38931054,15.3534932 C9.59593806,15.2540836 9.82134653,15.2766764 10.0655427,15.4212722 C10.1594643,15.4754956 10.2322524,15.5523109 10.2839093,15.6517205 C10.3355662,15.7511301 10.3684383,15.8595754 10.3825265,15.9770594 C10.3966148,16.0945435 10.3919187,16.2142851 10.3684383,16.3362878 C10.3449579,16.4582905 10.3050419,16.568995 10.2486889,16.6684046 C10.0420614,16.9937451 9.79317286,17.3168215 9.5020159,17.6376434 C9.21085893,17.9584653 8.86805023,18.2860602 8.4735795,18.620438 C8.22938333,18.8282944 8.00632287,18.948036 7.80439143,18.9796663 C7.60245998,19.0112966 7.42635962,18.9683704 7.27608506,18.8508863 C7.12581049,18.7334023 7.01075826,18.5481417 6.9309249,18.2950991 C6.85109153,18.0420564 6.81117545,17.7393135 6.81117545,17.3868613 L6.81117545,14.2961418 L5.81091539,14.2961418 C5.53854275,14.2961418 5.34131034,14.2509563 5.21921226,14.1605839 C5.09711417,14.0702116 5.03606605,13.8668768 5.03606605,13.5505735 C5.03606605,13.2704192 5.09711417,13.0738622 5.21921226,12.9608968 C5.34131034,12.8479313 5.53854275,12.7914494 5.81091539,12.7914494 L6.81117545,12.7914494 L6.81117545,11.4629823 L6.76891094,11.4629823 L6.68438192,11.6256517 C6.53410736,11.8877316 6.360355,12.0662143 6.16311964,12.1611053 C5.96588427,12.2559963 5.73108379,12.2130701 5.45871114,12.0323253 C5.25208362,11.905804 5.11120333,11.749914 5.03606605,11.5646507 C4.96092877,11.3793873 5.00319285,11.1512005 5.16285958,10.8800834 C5.58550679,10.175179 5.95414355,9.48158144 6.26878091,8.79927007 C6.53097872,8.23067726 6.72958145,7.6824878 6.86459298,7.15469034 L6.93796898,6.84045881 C6.99432194,6.56030447 7.09528615,6.3479326 7.24086463,6.20333681 C7.38644312,6.05874102 7.61419959,6.00903697 7.92414087,6.05422315 Z M16.4052191,13.5776851 L12.2069445,13.5776851 L12.2069445,14.7841502 L16.4052191,14.7841502 L16.4052191,13.5776851 Z M15.8839568,11.0698644 L12.6155014,11.0698644 C12.3431288,11.0698644 12.2069445,11.2415694 12.2069445,11.5849844 L12.2069445,11.5849844 L12.2069445,12.2085506 L16.4052191,12.2085506 L16.4052191,11.4765381 C16.4052191,11.2957933 16.3723471,11.1828296 16.3066019,11.1376434 C16.2408568,11.0924572 16.0999765,11.0698644 15.8839568,11.0698644 L15.8839568,11.0698644 Z" id="形状结合" fill="#258FF8" fill-rule="nonzero"></path>
                </g>
            </g>
        </g>
    </g>
</svg>