<?xml version="1.0" encoding="UTF-8"?>
<svg width="24px" height="24px" viewBox="0 0 24 24" version="1.1" xmlns="http://www.w3.org/2000/svg" xmlns:xlink="http://www.w3.org/1999/xlink">
    <!-- Generator: Sketch 59 (86127) - https://sketch.com -->
    <title>增</title>
    <desc>Created with Sketch.</desc>
    <g id="报表-商品销售统计" stroke="none" stroke-width="1" fill="none" fill-rule="evenodd">
        <g id="报表-商品销售统计-默认" transform="translate(-984.000000, -431.000000)">
            <g id="Card-4备份-3" transform="translate(960.000000, 411.000000)">
                <g id="增" transform="translate(24.000000, 20.000000)">
                    <circle id="Oval-2" stroke="#52C41A" stroke-width="2" cx="12" cy="12" r="11"></circle>
                    <path d="M11.9416744,7.25790769 L12.5296744,7.25790769 L12.3616744,7.03390769 C12.1843402,6.79123981 12.1096742,6.57424198 12.1376744,6.38290769 C12.1656745,6.1915734 12.2683402,6.02590839 12.4456744,5.88590769 C12.6230086,5.74590699 12.8026735,5.71090734 12.9846744,5.78090769 C13.1666753,5.85090804 13.3230071,5.97457347 13.4536744,6.15190769 L13.6372298,6.44746299 L13.6372298,6.44746299 L13.7406744,6.62090769 C13.8480083,6.8029086 13.9670071,7.01523981 14.0976744,7.25790769 L15.4416744,7.25790769 C15.5630083,7.09924023 15.665674,6.93824184 15.7496744,6.77490769 C15.8336748,6.61157354 15.9130073,6.45057515 15.9876744,6.29190769 C16.0903416,6.02123967 16.2116737,5.84390811 16.3516744,5.75990769 C16.4916751,5.67590727 16.6830065,5.68524051 16.9256744,5.78790769 C17.1683423,5.89057487 17.3083409,6.05623988 17.3456744,6.28490769 C17.3755412,6.46784194 17.3516482,6.6433074 17.2739947,6.81130741 L17.1076744,7.11090769 C17.0796742,7.16224128 17.0516745,7.21124079 17.0236744,7.25790769 L17.4576744,7.25790769 C17.8870099,7.25790769 18.2066733,7.35124009 18.4166744,7.53790769 C18.6266754,7.72457529 18.7316744,8.06990517 18.7316744,8.57390769 L18.7316744,11.8639077 C18.7316744,12.3585768 18.6266754,12.6899069 18.4166744,12.8579077 C18.2066733,13.0259085 17.8870099,13.1099077 17.4576744,13.1099077 L11.9416744,13.1099077 C11.5030055,13.1099077 11.1950086,13.0259085 11.0176744,12.8579077 C10.8403402,12.6899069 10.7516744,12.3585768 10.7516744,11.8639077 L10.7516744,8.57390769 C10.7516744,8.06990517 10.8380069,7.72457529 11.0106744,7.53790769 C11.1833419,7.35124009 11.4936721,7.25790769 11.9416744,7.25790769 Z M18.2556744,17.7719077 C18.2556744,18.2665768 18.1716752,18.6049068 18.0036744,18.7869077 C17.8356735,18.9689086 17.5370099,19.0599077 17.1076744,19.0599077 L12.4736744,19.0599077 C12.2496733,19.0599077 12.0653418,19.0435745 11.9206744,19.0109077 C11.776007,18.9782409 11.6593415,18.9129082 11.5706744,18.8149077 C11.4820073,18.7169072 11.4213412,18.5862418 11.3886744,18.4229077 C11.3625409,18.2922404 11.346861,18.1272283 11.3416344,17.9278681 L11.3396744,14.8459077 C11.3396744,14.3699053 11.4236735,14.0432419 11.5916744,13.8659077 C11.7596752,13.6885735 12.0536723,13.5999077 12.4736744,13.5999077 L17.1076744,13.5999077 C17.56501,13.5999077 17.8706736,13.6909068 18.0246744,13.8729077 C18.1786752,14.0549086 18.2556744,14.3792387 18.2556744,14.8459077 L18.2556744,17.7719077 Z M10.4156744,14.7339077 C10.4156744,14.9952423 10.3713415,15.195907 10.2826744,15.3359077 C10.1940073,15.4759084 10.0236756,15.5459077 9.77167438,15.5459077 C9.55700664,15.5459077 9.40067487,15.4712418 9.30267438,15.3219077 C9.20467389,15.1725736 9.15567438,14.9765756 9.15567438,14.7339077 L9.15567438,7.97190769 C9.15567438,7.80390685 9.11834142,7.69190797 9.04367438,7.63590769 C8.96900734,7.57990741 8.86167508,7.55190769 8.72167438,7.55190769 L7.67167438,7.55190769 C7.49434016,7.55190769 7.37300804,7.57524079 7.30767438,7.62190769 C7.24234072,7.66857459 7.20967438,7.78524009 7.20967438,7.97190769 L7.20967438,14.7899077 C7.20967438,15.0512423 7.16534149,15.251907 7.07667438,15.3919077 C6.98800727,15.5319084 6.82234226,15.6019077 6.57967438,15.6019077 C6.3370065,15.6019077 6.16667487,15.5319084 6.06867438,15.3919077 C5.97067389,15.251907 5.92167438,15.0512423 5.92167438,14.7899077 L5.92167438,7.62190769 C5.92167438,7.31390615 5.93800755,7.06657529 5.97067438,6.87990769 C6.00334121,6.69324009 6.06634058,6.54624156 6.15967438,6.43890769 C6.25300818,6.33157382 6.38834016,6.26157452 6.56567438,6.22890769 C6.70754176,6.20277423 6.88823371,6.18709431 7.10775389,6.18186768 L9.07167438,6.17990769 C9.36100916,6.17990769 9.59434016,6.19624086 9.77167438,6.22890769 C9.9490086,6.26157452 10.0866739,6.33157382 10.1846744,6.43890769 C10.2826749,6.54624156 10.3456742,6.69790671 10.3736744,6.89390769 C10.3960745,7.05070848 10.4095144,7.24932029 10.4139944,7.48974716 L10.4156744,14.7339077 Z M10.4996744,17.5339077 C10.6303417,17.7952423 10.6910078,18.0122402 10.6816744,18.1849077 C10.672341,18.3575752 10.5836752,18.5092404 10.4156744,18.6399077 C10.2290068,18.7799084 10.0446753,18.814908 9.86267438,18.7449077 C9.68067347,18.6749073 9.53367494,18.5185756 9.42167438,18.2759077 C9.29100706,18.0519066 9.12534205,17.7975758 8.92467438,17.5129077 C8.72400671,17.2282396 8.5350086,16.9785754 8.35767438,16.7639077 L8.30867438,16.7149077 C8.29467431,16.7009076 8.28300776,16.6845745 8.27367438,16.6659077 C8.1243403,17.0485763 7.95400867,17.4125726 7.76267438,17.7579077 C7.57134009,18.1032428 7.34500902,18.4392394 7.08367438,18.7659077 C6.85033988,19.0459091 6.63100874,19.1905743 6.42567438,19.1999077 C6.22034002,19.2092411 6.03834184,19.1112421 5.87967438,18.9059077 C5.7770072,18.7752404 5.73967424,18.6095754 5.76767438,18.4089077 C5.79567452,18.20824 5.91700664,17.981909 6.13167438,17.7299077 C6.57967662,17.1699049 6.93433974,16.5679109 7.19567438,15.9239077 C7.45700902,15.2799045 7.58767438,14.5799115 7.58767438,13.8239077 L7.58767438,9.30190769 C7.58767438,8.97523939 7.62734065,8.74890832 7.70667438,8.62290769 C7.78600811,8.49690706 7.95167312,8.43390769 8.20367438,8.43390769 C8.41834212,8.43390769 8.57000727,8.49224044 8.65867438,8.60890769 C8.74734149,8.72557494 8.79167438,8.95657263 8.79167438,9.30190769 L8.79167438,13.8239077 C8.79167438,14.4119106 8.7263417,14.9905715 8.59567438,15.5599077 C8.84767564,15.4572405 9.09033988,15.5365731 9.32367438,15.7979077 C9.42634156,15.9192416 9.53600713,16.0592402 9.65267438,16.2179077 C9.76934163,16.3765752 9.88134051,16.5375735 9.98867438,16.7009077 L10.2896744,17.1699077 L10.2896744,17.1699077 L10.4121745,17.3729078 C10.4471744,17.4335743 10.4763409,17.4872408 10.4996744,17.5339077 Z M14.2236744,8.46190769 L12.2216744,8.46190769 C12.1190072,8.46190769 12.0560078,8.47590755 12.0326744,8.50390769 C12.0093409,8.53190783 11.9976744,8.58790727 11.9976744,8.67190769 L11.9976744,11.6119077 C11.9976744,11.742575 12.0676737,11.8079077 12.2076744,11.8079077 L14.2236744,11.8079077 L14.2236744,8.46190769 Z M17.4576744,8.67190769 C17.4576744,8.53190699 17.3830085,8.46190769 17.2336744,8.46190769 L15.4416744,8.46190769 L15.4416744,11.8079077 L17.1916744,11.8079077 C17.2943416,11.8079077 17.3643409,11.7915745 17.4016744,11.7589077 C17.4390079,11.7262409 17.4576744,11.6492416 17.4576744,11.5279077 L17.4576744,8.67190769 Z M16.8696744,14.9999077 C16.8696744,14.8972405 16.8090083,14.8459077 16.6876744,14.8459077 L12.8796744,14.8459077 C12.8236741,14.8459077 12.7863411,14.8599076 12.7676744,14.8879077 C12.7536743,14.9089078 12.7449243,14.9482825 12.7414244,15.0060325 L12.7396744,15.7559077 L16.8696744,15.7559077 L16.8696744,14.9999077 Z M16.8696744,16.9599077 L12.7396744,16.9599077 L12.7396744,17.6739077 C12.7396744,17.7205746 12.7466743,17.7509076 12.7606744,17.7649077 C12.7746745,17.7789078 12.8096741,17.7859077 12.8656744,17.7859077 L16.7156744,17.7859077 C16.7903414,17.7859077 16.8346743,17.7765745 16.8486744,17.7579077 C16.8626745,17.7392409 16.8696744,17.701908 16.8696744,17.6459077 L16.8696744,16.9599077 Z M13.9996744,10.5899077 C14.0556745,10.720575 14.0696745,10.8489071 14.0416744,10.9749077 C14.0136742,11.1009083 13.9203418,11.2059073 13.7616744,11.2899077 C13.6030069,11.3645747 13.4513418,11.3855745 13.3066744,11.3529077 C13.162007,11.3202409 13.0476748,11.2199085 12.9636744,11.0519077 C12.8610072,10.7999064 12.7490083,10.5899085 12.6276744,10.4219077 C12.5063404,10.2539069 12.3850083,10.0765753 12.2636744,9.88990769 C12.0788735,9.61270631 12.098193,9.38086821 12.321634,9.19438789 L12.4036744,9.13390769 C12.5343417,9.03124051 12.6626738,8.98924093 12.7886744,9.00790769 C12.914675,9.02657445 13.0430071,9.11524023 13.1736744,9.27390769 C13.3323418,9.49790881 13.4910069,9.7289065 13.6496744,9.96690769 C13.8083418,10.2049089 13.9250073,10.4125735 13.9996744,10.5899077 Z M17.2616744,9.80590769 C17.1870073,10.0112421 17.0983416,10.2049068 16.9956744,10.3869077 L16.5896744,11.0939077 L16.5896744,11.0939077 C16.4590071,11.2992421 16.3376749,11.4135742 16.2256744,11.4369077 C16.1136738,11.4602411 15.9923417,11.4345747 15.8616744,11.3599077 C15.6470066,11.2292404 15.5326745,11.0892418 15.5186744,10.9399077 C15.5046743,10.7905736 15.5536738,10.6225753 15.6656744,10.4359077 L15.9316744,10.0159077 L15.9316744,10.0159077 C16.0343416,9.84790685 16.1230073,9.64724219 16.1976744,9.41390769 C16.3470085,9.03123911 16.5943393,8.89590713 16.9396744,9.00790769 C17.2943428,9.11057487 17.4016751,9.37657221 17.2616744,9.80590769 Z" id="赠" fill="#52C41A" fill-rule="nonzero"></path>
                </g>
            </g>
        </g>
    </g>
</svg>