<?xml version="1.0" encoding="UTF-8"?>
<svg width="100px" height="20px" viewBox="0 0 100 20" version="1.1" xmlns="http://www.w3.org/2000/svg" xmlns:xlink="http://www.w3.org/1999/xlink">
    <!-- Generator: Sketch 59 (86127) - https://sketch.com -->
    <title>形状结合</title>
    <desc>Created with Sketch.</desc>
    <g id="自定义标签" stroke="none" stroke-width="1" fill="none" fill-rule="evenodd">
        <g id="叫号一维码组件-选中" transform="translate(-224.000000, -810.000000)" fill="#000000" fill-rule="nonzero">
            <g id="标签/一维码" transform="translate(204.000000, 580.000000)">
                <g id="编组-2">
                    <g transform="translate(13.000000, 223.000000)">
                        <g id="编组" transform="translate(7.000000, 7.000000)">
                            <path d="M49.7505334,0 L49.7505334,20 L44.2416821,20 L44.2416821,0 L49.7505334,0 Z M31.7742665,0 L31.7742665,20 L26.2654152,20 L26.2654152,0 L31.7742665,0 Z M2.75440136,0 L2.75440136,20 L0,20 L0,0 L2.75440136,0 Z M5.46672854,0 L5.46672854,20 L4.08950357,20 L4.08950357,0 L5.46672854,0 Z M8.38179886,0 L8.38179886,20 L7.00457388,20 L7.00457388,0 L8.38179886,0 Z M11.3940382,0 L11.3940382,20 L10.0168132,20 L10.0168132,0 L11.3940382,0 Z M18.9479571,0 L18.9479571,20 L17.5707321,20 L17.5707321,0 L18.9479571,0 Z M21.8630274,0 L21.8630274,20 L20.4858024,20 L20.4858024,0 L21.8630274,0 Z M24.8752667,0 L24.8752667,20 L23.4980417,20 L23.4980417,0 L24.8752667,0 Z M34.9808438,0 L34.9808438,20 L33.6036189,20 L33.6036189,0 L34.9808438,0 Z M37.9930832,0 L37.9930832,20 L36.6158582,20 L36.6158582,0 L37.9930832,0 Z M15.4835418,0 L15.4835418,20 L12.7291404,20 L12.7291404,0 L15.4835418,0 Z M42.3021887,0 L42.3021887,20 L39.5477873,20 L39.5477873,0 L42.3021887,0 Z M100,0 L100,20 L94.5047627,20 L94.5047627,0 L100,0 Z M82.0681578,0 L82.0681578,20 L76.5729205,20 L76.5729205,0 L82.0681578,0 Z M53.1200095,0 L53.1200095,20 L50.3724151,20 L50.3724151,0 L53.1200095,0 Z M55.8256337,0 L55.8256337,20 L54.4518123,20 L54.4518123,0 L55.8256337,0 Z M58.7335,0 L58.7335,20 L57.3596786,20 L57.3596786,0 L58.7335,0 Z M61.7382952,0 L61.7382952,20 L60.3644738,20 L60.3644738,0 L61.7382952,0 Z M69.2735461,0 L69.2735461,20 L67.8997246,20 L67.8997246,0 L69.2735461,0 Z M72.1814124,0 L72.1814124,20 L70.8075909,20 L70.8075909,0 L72.1814124,0 Z M75.1862076,0 L75.1862076,20 L73.8123861,20 L73.8123861,0 L75.1862076,0 Z M85.2668107,0 L85.2668107,20 L83.8929893,20 L83.8929893,0 L85.2668107,0 Z M88.2716059,0 L88.2716059,20 L86.8977845,20 L86.8977845,0 L88.2716059,0 Z M65.8176924,0 L65.8176924,20 L63.070098,20 L63.070098,0 L65.8176924,0 Z M92.5700623,0 L92.5700623,20 L89.8224679,20 L89.8224679,0 L92.5700623,0 Z" id="形状结合"></path>
                        </g>
                    </g>
                </g>
            </g>
        </g>
    </g>
</svg>