<?xml version="1.0" encoding="UTF-8"?>
<svg width="100px" height="22px" viewBox="0 0 100 22" version="1.1" xmlns="http://www.w3.org/2000/svg" xmlns:xlink="http://www.w3.org/1999/xlink">
    <title>编组</title>
    <g id="控件" stroke="none" stroke-width="1" fill="none" fill-rule="evenodd">
        <g id="标签/普通标签/40*30/自定义" transform="translate(-12.000000, -166.000000)" fill="#000000">
            <g id="编组" transform="translate(12.000000, 166.000000)">
                <path d="M100,1.55431223e-13 L100,12 L94,12 L94,1.55431223e-13 L100,1.55431223e-13 Z M82,1.75859327e-13 L82,12 L76,12 L76,1.75859327e-13 L82,1.75859327e-13 Z M53,1.75859327e-13 L53,12 L50,12 L50,12 L44,12 L44,1.95399252e-14 L53,1.75859327e-13 Z M55,1.75859327e-13 L55,12 L54,12 L54,1.75859327e-13 L55,1.75859327e-13 Z M58,1.55431223e-13 L58,12 L57,12 L57,1.55431223e-13 L58,1.55431223e-13 Z M61,1.55431223e-13 L61,12 L60,12 L60,1.55431223e-13 L61,1.55431223e-13 Z M69,1.55431223e-13 L69,12 L68,12 L68,1.55431223e-13 L69,1.55431223e-13 Z M72,1.75859327e-13 L72,12 L71,12 L71,1.75859327e-13 L72,1.75859327e-13 Z M75,1.75859327e-13 L75,12 L74,12 L74,1.75859327e-13 L75,1.75859327e-13 Z M85,8.61533067e-14 L85,12 L84,12 L84,8.61533067e-14 L85,8.61533067e-14 Z M88,1.55431223e-13 L88,12 L87,12 L87,1.55431223e-13 L88,1.55431223e-13 Z M66,1.75859327e-13 L66,12 L63,12 L63,1.75859327e-13 L66,1.75859327e-13 Z M93,1.55431223e-13 L93,12 L90,12 L90,1.55431223e-13 L93,1.55431223e-13 Z M32,1.95399252e-14 L32,12 L26,12 L26,1.95399252e-14 L32,1.95399252e-14 Z M3,1.95399252e-14 L3,12 L-5.81756865e-14,12 L-5.81756865e-14,1.95399252e-14 L3,1.95399252e-14 Z M5,3.99680289e-14 L5,12 L4,12 L4,3.99680289e-14 L5,3.99680289e-14 Z M8,3.99680289e-14 L8,12 L7,12 L7,3.99680289e-14 L8,3.99680289e-14 Z M11,-4.97379915e-14 L11,12 L10,12 L10,-4.97379915e-14 L11,-4.97379915e-14 Z M19,1.95399252e-14 L19,12 L18,12 L18,1.95399252e-14 L19,1.95399252e-14 Z M22,3.99680289e-14 L22,12 L21,12 L21,3.99680289e-14 L22,3.99680289e-14 Z M25,1.95399252e-14 L25,12 L24,12 L24,1.95399252e-14 L25,1.95399252e-14 Z M35,1.95399252e-14 L35,12 L34,12 L34,1.95399252e-14 L35,1.95399252e-14 Z M38,1.95399252e-14 L38,12 L37,12 L37,1.95399252e-14 L38,1.95399252e-14 Z M16,1.95399252e-14 L16,12 L13,12 L13,1.95399252e-14 L16,1.95399252e-14 Z M43,1.95399252e-14 L43,12 L40,12 L40,1.95399252e-14 L43,1.95399252e-14 Z" id="形状结合" fill-rule="nonzero"></path>
                <text id="201292343788798" font-family="PingFangSC-Regular, PingFang SC" font-size="8" font-weight="normal" line-spacing="6">
                    <tspan x="0" y="21">201292343788798</tspan>
                </text>
            </g>
        </g>
    </g>
</svg>