<?xml version="1.0" encoding="UTF-8"?>
<svg width="16px" height="16px" viewBox="0 0 16 16" version="1.1" xmlns="http://www.w3.org/2000/svg" xmlns:xlink="http://www.w3.org/1999/xlink">
    <!-- Generator: Sketch 59 (86127) - https://sketch.com -->
    <title>矩形</title>
    <desc>Created with Sketch.</desc>
    <g id="自定义标签" stroke="none" stroke-width="1" fill="none" fill-rule="evenodd">
        <g id="切图" transform="translate(-87.000000, -358.000000)" fill-rule="nonzero">
            <g id="ic/箭头-拖动" transform="translate(87.000000, 358.000000)">
                <g>
                    <rect id="矩形" fill="#258FF8" opacity="0" x="0" y="0" width="16" height="16"></rect>
                    <path d="M14.6875,8.34375 C14.6875,8.465625 14.6421875,8.5734375 14.553125,8.6625 L12.740625,10.4765625 C12.6515625,10.565625 12.54375,10.6109375 12.421875,10.6109375 C12.3,10.6109375 12.1921875,10.565625 12.103125,10.4765625 C12.0140625,10.3875 11.96875,10.28125 11.96875,10.1578125 L11.96875,9.2515625 L9.25,9.2515625 L9.25,11.9703125 L10.15625,11.9703125 C10.278125,11.9703125 10.3859375,12.015625 10.475,12.1046875 C10.5640625,12.19375 10.609375,12.3015625 10.609375,12.4234375 C10.609375,12.5453125 10.5640625,12.653125 10.475,12.7421875 L8.6609375,14.5546875 C8.571875,14.64375 8.4640625,14.6890625 8.3421875,14.6890625 C8.2203125,14.6890625 8.1125,14.64375 8.0234375,14.5546875 L6.2109375,12.7421875 C6.121875,12.653125 6.0765625,12.546875 6.0765625,12.4234375 C6.0765625,12.3015625 6.121875,12.19375 6.2109375,12.1046875 C6.3,12.015625 6.40625,11.9703125 6.5296875,11.9703125 L7.4359375,11.9703125 L7.4359375,9.25 L4.71875,9.25 L4.71875,10.15625 C4.71875,10.278125 4.6734375,10.3859375 4.584375,10.475 C4.4953125,10.5640625 4.3875,10.609375 4.265625,10.609375 C4.14375,10.609375 4.0359375,10.5640625 3.946875,10.475 L2.134375,8.6609375 C2.0453125,8.571875 2,8.465625 2,8.3421875 C2,8.2203125 2.0453125,8.1125 2.134375,8.0234375 L3.946875,6.2109375 C4.0359375,6.121875 4.1421875,6.0765625 4.265625,6.0765625 C4.3875,6.0765625 4.4953125,6.121875 4.584375,6.2109375 C4.6734375,6.3 4.71875,6.4078125 4.71875,6.5296875 L4.71875,7.4359375 L7.4375,7.4359375 L7.4375,4.71875 L6.53125,4.71875 C6.409375,4.71875 6.3015625,4.6734375 6.2125,4.584375 C6.1234375,4.4953125 6.078125,4.3890625 6.078125,4.265625 C6.078125,4.14375 6.1234375,4.0359375 6.2125,3.946875 L8.025,2.134375 C8.1140625,2.0453125 8.2203125,2 8.34375,2 C8.465625,2 8.5734375,2.0453125 8.6625,2.134375 L10.475,3.946875 C10.5640625,4.0359375 10.609375,4.14375 10.609375,4.265625 C10.609375,4.3875 10.5640625,4.4953125 10.475,4.584375 C10.3859375,4.6734375 10.278125,4.71875 10.15625,4.71875 L9.25,4.71875 L9.25,7.4375 L11.96875,7.4375 L11.96875,6.53125 C11.96875,6.409375 12.0140625,6.3015625 12.103125,6.2125 C12.1921875,6.1234375 12.2984375,6.078125 12.421875,6.078125 C12.54375,6.078125 12.6515625,6.1234375 12.740625,6.2125 L14.55625,8.025 C14.6421875,8.115625 14.6875,8.2203125 14.6875,8.34375 Z" id="路径" fill-opacity="0.85" fill="#000000"></path>
                </g>
            </g>
        </g>
    </g>
</svg>