<?xml version="1.0" encoding="UTF-8"?>
<svg width="20px" height="20px" viewBox="0 0 20 20" version="1.1" xmlns="http://www.w3.org/2000/svg" xmlns:xlink="http://www.w3.org/1999/xlink">
    <!-- Generator: Sketch 59 (86127) - https://sketch.com -->
    <title>形状结合</title>
    <desc>Created with Sketch.</desc>
    <g id="自定义标签" stroke="none" stroke-width="1" fill="none" fill-rule="evenodd">
        <g id="切图" transform="translate(-551.000000, -151.000000)" fill="#258FF8" fill-rule="nonzero">
            <g id="编组-8备份-3" transform="translate(561.000000, 161.000000) rotate(-180.000000) translate(-561.000000, -161.000000) translate(551.000000, 151.000000)">
                <path d="M10.4896589,4.128 L10.6000589,4.2 L14.6000589,7.2 C15.0418867,7.53137085 15.1314297,8.1581722 14.8000589,8.6 C14.4941781,9.00784105 13.9365695,9.11551047 13.505084,8.86902959 L13.4000589,8.8 L11,7 L11.0000589,20 L9.00005885,20 L9,7 L6.60005885,8.8 C6.19221781,9.10588078 5.62676616,9.05311304 5.28155471,8.69567545 L5.20005885,8.6 C4.89417807,8.19215895 4.94694581,7.62670731 5.3043834,7.28149586 L5.40005885,7.2 L9.40005885,4.2 C9.72005885,3.96 10.1480589,3.936 10.4896589,4.128 Z M20,2.72848411e-12 L20,2 L-1.8189894e-12,2 L-1.8189894e-12,2.72848411e-12 L20,2.72848411e-12 Z" id="形状结合"></path>
            </g>
        </g>
    </g>
</svg>