<?xml version="1.0" encoding="UTF-8"?>
<svg width="20px" height="22px" viewBox="0 0 20 22" version="1.1" xmlns="http://www.w3.org/2000/svg" xmlns:xlink="http://www.w3.org/1999/xlink">
    <!-- Generator: Sketch 59 (86127) - https://sketch.com -->
    <title>形状结合</title>
    <desc>Created with Sketch.</desc>
    <g id="自定义标签" stroke="none" stroke-width="1" fill="none" fill-rule="evenodd">
        <g id="切图" transform="translate(-487.000000, -150.000000)" fill="#258FF8">
            <path d="M496.4,163.2 C496.755556,162.933333 497.244444,162.933333 497.6,163.2 L497.6,163.2 L501.6,166.2 C502.041828,166.531371 502.131371,167.158172 501.8,167.6 C501.468629,168.041828 500.841828,168.131371 500.4,167.8 L500.4,167.8 L498,166.001 L498,172 L496,172 L496,165.999 L493.6,167.8 C493.192159,168.105881 492.626707,168.053113 492.281496,167.695675 L492.2,167.6 C491.868629,167.158172 491.958172,166.531371 492.4,166.2 L492.4,166.2 Z M507,160 L507,162 L487,162 L487,160 L507,160 Z M498,150 L498,155.999 L500.4,154.2 C500.807841,153.894119 501.373293,153.946887 501.718504,154.304325 L501.8,154.4 C502.131371,154.841828 502.041828,155.468629 501.6,155.8 L501.6,155.8 L497.6,158.8 C497.244444,159.066667 496.755556,159.066667 496.4,158.8 L496.4,158.8 L492.4,155.8 C491.958172,155.468629 491.868629,154.841828 492.2,154.4 C492.531371,153.958172 493.158172,153.868629 493.6,154.2 L493.6,154.2 L496,155.999 L496,150 L498,150 Z" id="形状结合"></path>
        </g>
    </g>
</svg>