<?xml version="1.0" encoding="UTF-8"?>
<svg width="54px" height="24px" viewBox="0 0 54 24" version="1.1" xmlns="http://www.w3.org/2000/svg" xmlns:xlink="http://www.w3.org/1999/xlink">
    <!-- Generator: Sketch 49.1 (51147) - http://www.bohemiancoding.com/sketch -->
    <title>logo copy</title>
    <desc>Created with Sketch.</desc>
    <defs>
        <polygon id="path-1" points="0 23.9210579 53.8059927 23.9210579 53.8059927 0 0 0"></polygon>
    </defs>
    <g id="Page-1" stroke="none" stroke-width="1" fill="none" fill-rule="evenodd">
        <g id="首页-员工首页-" transform="translate(-13.000000, -13.000000)">
            <g id="topBar">
                <g id="logo" transform="translate(13.000000, 12.000000)">
                    <g id="logo-copy" transform="translate(0.000000, 1.000000)">
                        <path d="M1.13562982,22.435795 C0.694400727,22.3221421 0.565978909,22.2592661 0.565978909,22.0621091 C0.565978909,21.9091835 0.710306182,21.8064397 0.925324364,21.8064397 C1.12404436,21.8064397 1.33572436,21.8835967 1.57077164,22.0418777 L1.81956436,21.6798942 C1.56684436,21.485514 1.268568,21.3867372 0.932589818,21.3867372 C0.426560727,21.3867372 0.0866552727,21.6812826 0.0866552727,22.1196298 C0.0866552727,22.6125223 0.421258909,22.7366876 0.894298909,22.8576793 C1.31353527,22.9655802 1.428408,23.0433322 1.428408,23.2204562 C1.428408,23.3527537 1.32354982,23.4941752 1.02959345,23.4941752 C0.770393455,23.4941752 0.532204364,23.4009521 0.282626182,23.2016132 L5.89090923e-05,23.5413818 C0.281055273,23.7817785 0.641382545,23.9136793 1.01879345,23.9136793 C1.56723709,23.9136793 1.907928,23.6246876 1.907928,23.1589686 C1.907928,22.7247868 1.61240073,22.560357 1.13562982,22.435795 Z" id="Fill-1" fill="#FFFFFF"></path>
                        <polygon id="Fill-3" fill="#FFFFFF" points="3.68470473 22.5227702 3.00293018 21.4229355 2.46096655 21.4229355 2.46096655 23.877481 2.93322109 23.877481 2.93322109 22.1564231 3.67743927 23.2893818 4.42872655 22.1459107 4.42872655 23.877481 4.90824655 23.877481 4.90824655 21.4229355 4.36647927 21.4229355"></polygon>
                        <path d="M6.27301309,22.891557 L6.66024218,21.9428628 L7.04747127,22.891557 L6.27301309,22.891557 Z M6.43540582,21.4049455 L5.38643127,23.8775405 L5.87380582,23.8775405 L6.103944,23.3112595 L7.21654036,23.3112595 L7.44667855,23.8775405 L7.94838764,23.8775405 L6.89941309,21.4049455 L6.43540582,21.4049455 Z" id="Fill-5" fill="#FFFFFF"></path>
                        <path d="M9.50610109,22.6498314 L8.909352,22.6498314 L8.909352,21.8532694 L9.49510473,21.8532694 C9.79436291,21.8532694 9.96598473,22.0006413 9.96598473,22.2571041 C9.96598473,22.499286 9.78984655,22.6498314 9.50610109,22.6498314 L9.50610109,22.6498314 Z M9.98267564,22.960443 C10.2925375,22.8287405 10.4563047,22.5728727 10.4563047,22.2208066 C10.4563047,21.7209719 10.1144356,21.4228562 9.54203564,21.4228562 L8.42629745,21.4228562 L8.42629745,23.8774017 L8.909352,23.8774017 L8.909352,23.0693355 L9.39908291,23.0693355 L9.93849382,23.8774017 L10.4998975,23.8774017 L9.89882836,22.9961455 L9.98267564,22.960443 Z" id="Fill-7" fill="#FFFFFF"></path>
                        <polygon id="Fill-9" fill="#FFFFFF" points="10.8478538 21.8641785 11.6140647 21.8641785 11.6140647 23.8774017 12.0971193 23.8774017 12.0971193 21.8641785 12.8633302 21.8641785 12.8633302 21.4228562 10.8478538 21.4228562"></polygon>
                        <path d="M15.4154291,22.435795 C14.9742,22.3221421 14.8457782,22.2592661 14.8457782,22.0621091 C14.8457782,21.9091835 14.9903018,21.8064397 15.2051236,21.8064397 C15.40404,21.8064397 15.6153273,21.8835967 15.8505709,22.0418777 L16.09956,21.6798942 C15.8466436,21.4851174 15.5483673,21.3867372 15.2121927,21.3867372 C14.7061636,21.3867372 14.3662582,21.6812826 14.3662582,22.1196298 C14.3662582,22.6125223 14.7010582,22.7362909 15.1740982,22.8576793 C15.5933345,22.9655802 15.7082073,23.0433322 15.7082073,23.2204562 C15.7082073,23.3527537 15.6035455,23.4941752 15.3093927,23.4941752 C15.0501927,23.4941752 14.8120036,23.4009521 14.5624255,23.2016132 L14.2796618,23.5413818 C14.5608545,23.7817785 14.9211818,23.9136793 15.2985927,23.9136793 C15.8470364,23.9136793 16.1877273,23.6246876 16.1877273,23.1589686 C16.1877273,22.7247868 15.8922,22.560357 15.4154291,22.435795" id="Fill-11" fill="#FFFFFF"></path>
                        <polygon id="Fill-13" fill="#FFFFFF" points="17.2202858 22.8528198 18.4075004 22.8528198 18.4075004 22.4295471 17.2202858 22.4295471 17.2202858 21.8462083 18.569304 21.8462083 18.569304 21.4229355 16.7409622 21.4229355 16.7409622 23.877481 18.5873695 23.877481 18.5873695 23.4544066 17.2202858 23.4544066"></polygon>
                        <path d="M20.2312276,22.6498314 L19.6346749,22.6498314 L19.6346749,21.8532694 L20.2204276,21.8532694 C20.5196858,21.8532694 20.6911113,22.0006413 20.6911113,22.2571041 C20.6911113,22.499286 20.5149731,22.6498314 20.2312276,22.6498314 L20.2312276,22.6498314 Z M20.7079985,22.960443 C21.0178604,22.8287405 21.1816276,22.5728727 21.1816276,22.2208066 C21.1816276,21.7209719 20.8397585,21.4228562 20.2673585,21.4228562 L19.151424,21.4228562 L19.151424,23.8774017 L19.6346749,23.8774017 L19.6346749,23.0693355 L20.1242095,23.0693355 L20.6638167,23.8774017 L21.2252204,23.8774017 L20.6241513,22.9961455 L20.7079985,22.960443 Z" id="Fill-15" fill="#FFFFFF"></path>
                        <polygon id="Fill-17" fill="#FFFFFF" points="22.6992829 23.2686942 22.0161338 21.422876 21.4818284 21.422876 22.4715011 23.8956694 22.9127302 23.8956694 23.9022065 21.422876 23.3822356 21.422876"></polygon>
                        <mask id="mask-2" fill="white">
                            <use xlink:href="#path-1"></use>
                        </mask>
                        <g id="Clip-20"></g>
                        <polygon id="Fill-19" fill="#FFFFFF" mask="url(#mask-2)" points="24.4042691 23.8774215 25.0628057 23.8774215 25.0628057 21.422876 24.4042691 21.422876"></polygon>
                        <path d="M26.7504415,23.4798347 C26.3137287,23.4798347 25.9848196,23.1200331 25.9848196,22.6430083 C25.9848196,22.174314 26.3137287,21.8210579 26.7504415,21.8210579 C26.9790087,21.8210579 27.1779251,21.904562 27.391176,22.0908099 L27.697896,21.7359669 C27.4383033,21.4898182 27.1459178,21.3797355 26.7541724,21.3797355 C26.0258596,21.3797355 25.4764342,21.929157 25.4764342,22.6574876 C25.4764342,23.3778843 26.0164342,23.921157 26.732376,23.921157 C27.144936,23.921157 27.432216,23.8003636 27.7155687,23.5062149 L27.4108124,23.1973884 C27.2138596,23.3725289 27.0306524,23.4798347 26.7504415,23.4798347" id="Fill-21" fill="#FFFFFF" mask="url(#mask-2)"></path>
                        <polygon id="Fill-22" fill="#FFFFFF" mask="url(#mask-2)" points="28.7225215 22.8528198 29.9099324 22.8528198 29.9099324 22.4295471 28.7225215 22.4295471 28.7225215 21.8462083 30.0715396 21.8462083 30.0715396 21.4229355 28.2431978 21.4229355 28.2431978 23.877481 30.0896051 23.877481 30.0896051 23.4544066 28.7225215 23.4544066"></polygon>
                        <polygon id="Fill-23" fill="#FFFFFF" mask="url(#mask-2)" points="41.1239062 21.4229355 39.1082335 21.4229355 39.1082335 21.8642579 39.8746407 21.8642579 39.8746407 23.877481 40.3578916 23.877481 40.3578916 21.8642579 41.1239062 21.8642579"></polygon>
                        <path d="M41.9845484,22.891557 L42.3717775,21.9428628 L42.7586138,22.891557 L41.9845484,22.891557 Z M42.1469411,21.4049455 L41.0975738,23.8775405 L41.5853411,23.8775405 L41.8154793,23.3112595 L42.9278793,23.3112595 L43.1582138,23.8775405 L43.6599229,23.8775405 L42.6105556,21.4049455 L42.1469411,21.4049455 Z" id="Fill-24" fill="#FFFFFF" mask="url(#mask-2)"></path>
                        <path d="M45.2176364,22.6498314 L44.6208873,22.6498314 L44.6208873,21.8532694 L45.2068364,21.8532694 C45.5058982,21.8532694 45.6773236,22.0006413 45.6773236,22.2571041 C45.6773236,22.499286 45.5011855,22.6498314 45.2176364,22.6498314 L45.2176364,22.6498314 Z M45.6942109,22.960443 C46.0040727,22.8287405 46.1676436,22.5728727 46.1676436,22.2208066 C46.1676436,21.7209719 45.8259709,21.4228562 45.2535709,21.4228562 L44.1378327,21.4228562 L44.1378327,23.8774017 L44.6208873,23.8774017 L44.6208873,23.0693355 L45.1104218,23.0693355 L45.6500291,23.8774017 L46.2116291,23.8774017 L45.6103636,22.9961455 L45.6942109,22.960443 Z" id="Fill-25" fill="#FFFFFF" mask="url(#mask-2)"></path>
                        <path d="M47.9333651,22.9033785 L48.4910378,22.9033785 L48.4910378,23.3193124 L48.4580487,23.3413289 C48.3168633,23.4365355 48.135816,23.4867174 47.9339542,23.4867174 C47.4715178,23.4867174 47.1359324,23.1318744 47.1359324,22.6431471 C47.1359324,22.1897256 47.4764269,21.8209983 47.8944851,21.8209983 C48.1837287,21.8209983 48.3630087,21.9130314 48.5477869,22.0627835 L48.8519542,21.6950479 C48.5792051,21.4713124 48.3040996,21.379676 47.9125505,21.379676 C47.191896,21.379676 46.6277433,21.9409983 46.6277433,22.6574281 C46.6277433,23.3895273 47.1693142,23.9210975 47.9158887,23.9210975 C48.3033142,23.9210975 48.6528415,23.7925686 48.9562233,23.5392793 L48.9562233,22.4945851 L47.9333651,22.4945851 L47.9333651,22.9033785 Z" id="Fill-26" fill="#FFFFFF" mask="url(#mask-2)"></path>
                        <polygon id="Fill-27" fill="#FFFFFF" mask="url(#mask-2)" points="50.0392865 22.8528198 51.2265011 22.8528198 51.2265011 22.4295471 50.0392865 22.4295471 50.0392865 21.8462083 51.3883047 21.8462083 51.3883047 21.4229355 49.5597665 21.4229355 49.5597665 23.877481 51.4061738 23.877481 51.4061738 23.4544066 50.0392865 23.4544066"></polygon>
                        <polygon id="Fill-28" fill="#FFFFFF" mask="url(#mask-2)" points="51.7904575 21.4229355 51.7904575 21.8642579 52.5566684 21.8642579 52.5566684 23.877481 53.0397229 23.877481 53.0397229 21.8642579 53.8061302 21.8642579 53.8061302 21.4229355"></polygon>
                        <path d="M35.4761542,22.0311471 L35.3430196,23.7950479 L33.6727505,23.7950479 C34.1004305,23.594519 34.3981178,23.1599405 34.3981178,22.6559405 C34.3981178,22.1457917 34.0933615,21.7066512 33.6572378,21.5094942 L36.1659796,21.5094942 L35.4761542,22.0311471 Z M32.1980596,22.6559405 C32.1980596,22.1491636 32.5943215,21.7364033 33.0928887,21.7096264 C33.1099724,21.7086347 33.1268596,21.7068496 33.1441396,21.7068496 C33.1614196,21.7068496 33.1781105,21.7086347 33.1951942,21.7096264 C33.6937615,21.7364033 34.0902196,22.1491636 34.0902196,22.6559405 C34.0902196,23.1627174 33.6937615,23.575676 33.1951942,23.6024529 C33.1781105,23.6034446 33.1614196,23.6050314 33.1441396,23.6050314 C33.1268596,23.6050314 33.1099724,23.6034446 33.0928887,23.6024529 C32.5943215,23.575676 32.1980596,23.1627174 32.1980596,22.6559405 L32.1980596,22.6559405 Z M33.2827724,21.4063537 C33.237216,21.4011967 33.1910705,21.3982215 33.1441396,21.3982215 C32.4527433,21.3982215 31.8901615,21.9623207 31.8901615,22.6559405 C31.8901615,23.3495603 32.4527433,23.9138579 33.1441396,23.9138579 C33.2081542,23.9138579 33.2705978,23.9075107 33.3320596,23.8981884 L35.4378633,23.8981884 L35.5745324,22.0856926 L36.4725033,21.4063537 L33.2827724,21.4063537 Z" id="Fill-29" fill="#FFFFFF" mask="url(#mask-2)"></path>
                        <path d="M36.386064,21.3981421 C35.375184,21.3981421 35.1737149,22.1847868 35.1438676,22.653481 C35.1426895,22.6639934 35.1421004,22.6733157 35.1421004,22.6828364 L35.1421004,23.6640595 C35.1421004,23.8013157 35.2534385,23.9131835 35.3905004,23.9131835 C35.5273658,23.9131835 35.6385076,23.8013157 35.6385076,23.6640595 L35.6385076,22.619762 C35.6385076,22.2042248 35.9738967,21.8662413 36.386064,21.8662413 C36.7982313,21.8662413 37.1336204,22.2042248 37.1336204,22.619762 L37.1336204,23.6632661 C37.1336204,23.8013157 37.2455476,23.9139769 37.3833949,23.9139769 C37.5212422,23.9139769 37.6333658,23.8013157 37.6333658,23.6632661 C37.6333658,23.618043 37.6306167,22.6608198 37.6262967,22.6235306 C37.5436276,21.5570182 36.813744,21.3981421 36.386064,21.3981421" id="Fill-30" fill="#FFFFFF" mask="url(#mask-2)"></path>
                        <path d="M37.3834145,23.9138975 C37.2455673,23.9138975 37.13364,23.8014347 37.13364,23.6631868 L37.13364,22.619881 C37.13364,22.2043438 36.7982509,21.8663603 36.3860836,21.8663603 C35.9739164,21.8663603 35.6385273,22.2043438 35.6385273,22.619881 L35.6385273,23.6639802 C35.6385273,23.8014347 35.5273855,23.9131041 35.39052,23.9131041 C35.2534582,23.9131041 35.14212,23.8014347 35.14212,23.6639802 L35.14212,22.682757 C35.14212,22.6732364 35.1427091,22.663914 35.1438873,22.6536 C35.1737345,22.1847074 35.3750073,21.3980628 36.3860836,21.3980628 C36.8137636,21.3980628 37.5434509,21.5569388 37.6263164,22.6234512 C37.6306364,22.6609388 37.6331891,23.618162 37.6331891,23.6631868 C37.6331891,23.8014347 37.5212618,23.9138975 37.3834145,23.9138975" id="Fill-31" fill="#FFFFFF" mask="url(#mask-2)"></path>
                        <polygon id="Fill-32" fill="#FFFFFF" mask="url(#mask-2)" points="32.7096655 23.1447273 33.3293484 23.1447273 33.3293484 22.5207273 32.7096655 22.5207273"></polygon>
                        <polygon id="Fill-33" fill="#FFFFFF" mask="url(#mask-2)" points="33.3808364 23.1447273 34.0011778 23.1447273 34.0011778 22.5207273 33.3808364 22.5207273"></polygon>
                        <path d="M52.7258553,0.598631405 C52.7258553,0.485375207 52.6349389,0.393540496 52.5230116,0.393540496 L45.6575498,0.393540496 L45.6575498,0.393143802 L37.0043935,0.393143802 C36.8903062,0.393143802 36.7980153,0.486565289 36.7980153,0.601804959 L37.9322116,2.14692893 C37.9919062,2.26395372 38.0993171,2.35519339 38.213208,2.35519339 L45.6573535,2.35519339 L45.6573535,2.35499504 L51.1763498,2.35499504 C51.2601971,2.35499504 51.4029535,2.35499504 51.5400153,2.23182149 L52.6757825,0.759490909 C52.6832444,0.745408264 52.6278698,0.830499174 52.6832444,0.745408264 C52.7258553,0.680152066 52.7258553,0.616482645 52.7258553,0.598631405" id="Fill-34" fill="#FFFFFF" mask="url(#mask-2)"></path>
                        <path d="M50.0161467,16.9175482 L50.0280004,16.9322149 C49.9996833,16.8915482 49.9746589,16.8535482 50.0161467,16.9175482" id="Fill-35" fill="#FFFFFF" mask="url(#mask-2)"></path>
                        <path d="M50.019336,16.922162 C50.0083396,16.9053025 50.0050015,16.9001455 50.0006815,16.8934017 L48.9059542,15.4516165 C48.7527905,15.3139636 48.5933433,15.3139636 48.4998742,15.3139636 L45.5968342,15.3139636 L45.5966378,15.3099967 C45.5218233,15.3099967 45.4772487,15.3088066 45.4633069,15.3086083 L41.1456633,15.3068231 C41.102856,15.3068231 41.0641724,15.2812364 41.0470887,15.2415669 C41.0302015,15.2016992 41.038056,15.155881 41.0671178,15.1243438 L44.7222305,10.4223273 C44.2568487,10.3481455 44.087976,10.3525091 43.5988342,10.3525091 C43.2897578,10.3525091 42.9637942,10.3723438 42.6305651,10.4112198 L42.5903105,10.4157818 C42.5526087,10.4201455 42.5145142,10.4245091 42.4770087,10.4296661 C42.4239905,10.4368066 42.3715615,10.4447405 42.318936,10.4528727 C42.3116705,10.4540628 42.0658233,10.4909554 41.925816,10.5326083 L38.1636851,15.3458975 L37.947096,15.6166413 C37.845576,15.7886083 37.7900051,15.986162 37.7900051,16.1914512 C37.7900051,16.7484099 37.9759615,17.2218645 38.5204778,17.3172694 L39.1364705,17.3154843 L44.5400051,17.315286 L45.5618815,17.315286 C45.604296,17.3172694 45.6637942,17.3192529 45.7431251,17.3192529 L45.7433215,17.3192529 L45.7429287,17.315286 L49.8402524,17.315286 C49.9655324,17.315286 50.066856,17.2129388 50.066856,17.086195 C50.066856,17.0663603 50.066856,16.9949554 50.019336,16.922162" id="Fill-36" fill="#FFFFFF" mask="url(#mask-2)"></path>
                        <path d="M50.0041964,16.8979636 C50.0213183,16.923297 50.0358061,16.9426303 50.0272451,16.9266303 L50.0041964,16.8979636 Z" id="Fill-37" fill="#FFFFFF" mask="url(#mask-2)"></path>
                        <polygon id="Fill-38" fill="#D30202" mask="url(#mask-2)" points="21.0849894 15.165719 21.0830138 15.165719 21.0863065 15.165719"></polygon>
                        <path d="M25.8428291,0.390406612 L25.7902036,0.390406612 L23.9612727,0.390406612 C23.8795855,0.390406612 23.80968,0.4392 23.7774764,0.509613223 L23.7708,0.526671074 L23.0020364,2.49189421 C23.4497455,2.42981157 23.8996145,2.39153058 24.3435927,2.39153058 C24.6269455,2.39153058 24.9156,2.40402645 25.2018982,2.42901818 C25.2272291,2.43139835 25.2521673,2.43417521 25.2773018,2.43695207 L25.3177527,2.44151405 L25.3295345,2.44270413 L26.0022764,0.674836364 L26.0050255,0.667894215 C26.0142545,0.644489256 26.0195564,0.619299174 26.0195564,0.592919008 C26.0195564,0.48858843 25.9423855,0.403497521 25.8428291,0.390406612" id="Fill-39" fill="#FFFFFF" mask="url(#mask-2)"></path>
                        <path d="M15.1591353,4.08170579 L15.1277171,4.07833388 L15.0703789,4.08210248 L6.26288073,4.08210248 C6.11737527,4.08210248 6.048648,4.13010248 5.96362255,4.24831736 L3.95089527,6.81552397 L3.91378255,6.86570579 C3.89807345,6.89486281 3.88845164,6.92778843 3.88845164,6.96289587 C3.88845164,7.07297851 3.97445891,7.16203636 4.08206618,7.16719339 L4.10091709,7.16719339 L5.71325891,7.16719339 C5.92631345,7.16719339 6.01526618,7.07278017 6.076728,6.99066446 L6.27132436,6.7306314 C6.28997891,6.70643306 6.31845164,6.69155702 6.348888,6.68937521 L6.35576073,6.68917686 C6.38403709,6.68917686 6.41093891,6.7002843 6.430968,6.72031736 L7.59226255,8.22517686 L7.74601527,8.18213554 C8.36927345,8.01294545 8.99763709,7.89810248 9.66959345,7.8278876 L8.158968,5.89638347 C8.12617527,5.86623471 8.11517891,5.81922645 8.13128073,5.77737521 C8.14738255,5.73572231 8.187048,5.70815207 8.23122982,5.70815207 L12.8956516,5.70815207 C12.9396371,5.70815207 12.9618262,5.72580496 12.9857825,5.76329256 C13.0018844,5.7882843 12.9647716,5.8632595 12.9392444,5.89479669 L11.4942044,7.75469752 C12.107448,7.77254876 12.7528953,7.83562314 13.3847935,7.9449124 L13.433688,7.95304463 C13.4623571,7.95760661 13.4910262,7.96236694 13.5196953,7.96772231 C13.5471862,7.97268099 13.5742844,7.97843306 13.6011862,7.98418512 L13.6494916,7.99410248 C13.664808,7.99687934 13.6791425,8.00044959 13.6944589,8.00342479 L15.677928,5.43720992 C15.8418916,5.22537521 15.9551935,5.06709421 15.9551935,4.93420165 C15.9551935,4.48058182 15.6054698,4.10610248 15.1591353,4.08170579" id="Fill-40" fill="#FFFFFF" mask="url(#mask-2)"></path>
                        <path d="M26.8484269,6.70103361 C26.8918903,6.58236694 26.9320611,6.47836694 26.9735489,6.36636694 C26.9149391,6.47036694 26.876744,6.58103361 26.8484269,6.70103361" id="Fill-41" fill="#FFFFFF" mask="url(#mask-2)"></path>
                        <path d="M27.6083772,6.6662281 C27.5919138,6.7202281 27.5767674,6.77489477 27.560304,6.82956143 C27.5840113,6.7782281 27.5919138,6.72089477 27.6083772,6.6662281" id="Fill-42" fill="#FFFFFF" mask="url(#mask-2)"></path>
                        <path d="M18.9696305,1.0997157 C18.9696305,0.994195041 18.8849978,0.908707438 18.7805324,0.908707438 L13.2968815,0.908707438 L11.6376087,0.908707438 C11.5949978,0.908707438 11.5949978,0.908707438 11.5394269,0.843649587 C11.5394269,0.843649587 11.1390415,0.330723967 11.0320233,0.19267438 C10.937376,0.0714842975 10.8433178,0.0014677686 10.6958487,0.0014677686 L9.00103418,0.0014677686 L8.98787782,7.93388435e-05 L8.97491782,0.0014677686 C8.88871418,0.00821157025 8.820576,0.0802115702 8.820576,0.169071074 C8.820576,0.184343802 8.82332509,0.199021488 8.82725236,0.213104132 C8.83314327,0.235715702 9.254736,0.756773554 9.254736,0.756773554 C9.26946327,0.789897521 9.26612509,0.828773554 9.24648873,0.859517355 C9.226656,0.890261157 9.19268509,0.908707438 9.15655418,0.908707438 L8.16020509,0.908707438 L6.18635782,0.908707438 L5.75808873,0.908707438 L3.49440873,0.908707438 C3.33064145,0.908707438 3.25327418,0.962856198 3.15764509,1.09555041 L1.01904873,3.82004628 L0.977419636,3.87657521 C0.959746909,3.90930248 0.948750545,3.94619504 0.948750545,3.98606281 C0.948750545,4.1098314 1.04555782,4.20999669 1.16671418,4.21574876 L1.18792145,4.21574876 L2.98837964,4.21574876 C3.19122327,4.21574876 3.41861236,4.0997157 3.55999418,3.88232727 L4.243536,3.0230876 C4.42988509,2.72398017 4.64706327,2.73607934 4.82045236,2.73607934 C6.00864873,2.73607934 5.22751418,2.7388562 6.00864873,2.7388562 L6.386256,2.7388562 L6.82159418,2.7388562 L6.82375418,2.73607934 L17.5194851,2.73607934 C17.5974415,2.73607934 17.7303796,2.73607934 17.8582124,2.62123636 L18.9230924,1.24966612 C18.9299651,1.23657521 18.8783215,1.31591405 18.9299651,1.23657521 C18.9696305,1.17588099 18.9696305,1.11657521 18.9696305,1.0997157" id="Fill-43" fill="#FFFFFF" mask="url(#mask-2)"></path>
                        <path d="M29.7142953,8.29806061 C29.7142953,8.48209872 29.5666298,8.63139394 29.3846007,8.63139394 C29.2025716,8.63139394 29.0551025,8.48209872 29.0551025,8.29806061 C29.0551025,8.11382396 29.2025716,7.96472727 29.3846007,7.96472727 C29.5666298,7.96472727 29.7142953,8.11382396 29.7142953,8.29806061" id="Fill-44" fill="#20B6F9" mask="url(#mask-2)"></path>
                        <path d="M27.2292742,11.1722149 C27.2786644,11.0475482 27.3293717,10.9195482 27.3827132,10.7862149 C27.3734937,10.8135482 27.3596644,10.8302149 27.3497864,10.8555482 L27.2292742,11.1722149 Z" id="Fill-45" fill="#FFFFFF" mask="url(#mask-2)"></path>
                        <path d="M29.5304002,7.95915372 C29.50801,7.96048705 29.489571,7.97315372 29.4678393,7.97782039 L29.56201,7.95915372 L29.5304002,7.95915372 Z" id="Fill-46" fill="#FFFFFF" mask="url(#mask-2)"></path>
                        <path d="M19.1949382,16.9236166 L19.2081089,16.9082832 C19.2528894,16.8382832 19.2258894,16.8789499 19.1949382,16.9236166" id="Fill-47" fill="#FFFFFF" mask="url(#mask-2)"></path>
                        <path d="M36.21348,12.9662678 L36.1797055,12.9250116 L35.451,12.0344331 L35.4223309,11.9993256 C35.3634218,11.9439868 35.2856618,11.9084826 35.1988691,11.9084826 C35.1548836,11.9084826 35.1130582,11.9180033 35.0747673,11.9336727 C35.0700545,11.9362512 35.0653418,11.9388298 35.0606291,11.9414083 C34.8640691,12.0441521 34.6451236,12.1371769 34.3470436,12.2274248 C34.3111091,12.2357554 34.2755673,12.2464661 34.2390436,12.2540033 C33.9916255,12.3057719 33.7373345,12.3339372 33.4777418,12.3339372 C31.4086582,12.3339372 29.7254291,10.6337058 29.7254291,8.54372231 C29.7254291,8.25929256 29.7142364,8.16587107 29.6174291,8.06967273 C29.5355455,7.95919339 29.2957855,7.95919339 29.2957855,7.95919339 L27.7502073,7.95919339 L27.5047527,7.95919339 L26.6383964,7.96474711 C26.3682,7.96474711 26.2994727,8.08593719 26.2391891,8.24778843 C25.8393927,9.33155702 25.2463745,10.7927802 24.8801564,11.6784 C24.8675891,11.7085488 24.8422582,11.7313587 24.8112327,11.7404826 C24.7802073,11.7504 24.7466291,11.7448463 24.72012,11.725805 L22.5660109,10.2243174 C22.5251673,10.1957554 22.5088691,10.142995 22.5267382,10.0959868 L24.17364,5.47906116 C23.4311891,5.49810248 22.6965927,5.63575537 21.9822218,5.90213554 C21.9421636,5.91701157 21.9021055,5.9318876 21.8622436,5.94775537 C21.8392691,5.95687934 21.8162945,5.96520992 21.7931236,5.97373884 C21.7736836,5.98087934 21.7540473,5.98782149 21.7351964,5.99575537 C21.6923891,6.01380496 21.6511527,6.03423471 21.6089345,6.05287934 C21.6089345,6.05287934 20.2404764,9.82901157 20.05884,10.3060364 C19.8770073,10.7828628 20.0260473,11.1466314 20.3380691,11.375524 C20.5528909,11.5330116 23.6359964,13.7402182 23.6359964,13.7402182 C23.6621127,13.7588628 23.6788036,13.7880198 23.6813564,13.8201521 C23.6841055,13.852086 23.6711455,13.8824331 23.6499382,13.9062347 C22.7930073,14.8630612 22.0923818,15.072714 21.2093345,15.1645488 L20.8588255,15.1770446 C20.7150873,15.1770446 20.5833273,15.2105653 20.4166145,15.3603174 L19.1987673,16.8816397 C19.1987673,16.8816397 19.19052,16.8943339 19.1785418,16.9125818 C19.1267018,16.9919207 19.1267018,17.0694744 19.1267018,17.0910942 C19.1267018,17.2285488 19.2370582,17.3402182 19.3733345,17.3402182 L20.0812255,17.3402182 C22.2950291,17.2733752 24.0314727,16.4851438 25.2440182,14.9999207 C25.2799527,14.9556893 25.3425927,14.9479537 25.3883455,14.9796893 L27.9736691,16.8082512 L27.9738655,16.8082512 C28.2515236,17.0046149 28.4759673,17.0561851 28.6039964,17.0676893 C28.6784182,17.0744331 28.7206364,17.0676893 28.7206364,17.0676893 L31.9518,17.0676893 C32.0264182,17.0676893 32.0790436,16.9992595 32.0790436,16.9248793 C32.0790436,16.8846149 32.0627455,16.8483174 32.0366291,16.8221355 L31.9973564,16.794962 L26.5013345,12.9674579 C26.45892,12.9377058 26.4432109,12.8817719 26.4642218,12.8341686 C26.9327455,11.7688463 27.0059891,11.4681521 27.2292545,10.9010777 L27.2651891,10.8068628 C27.2681345,10.7993256 27.2722582,10.7943669 27.2750073,10.7862347 C27.27972,10.7743339 27.2826655,10.7628298 27.2865927,10.7509289 L27.6734291,9.74649917 C27.6918873,9.70306116 27.7286073,9.63601983 27.7879091,9.63601983 L27.8419091,9.63601983 C27.9100473,9.63601983 27.9451964,9.7032595 27.9628691,9.75185455 C28.5146509,12.3222347 30.7712618,14.2499702 33.48108,14.2499702 C33.8174509,14.2499702 34.1442,14.212681 34.4642727,14.1553587 L34.4650582,14.1621025 C34.533,14.1533752 34.5930873,14.1357223 34.6578873,14.1240198 L34.6643673,14.1228298 L34.6679018,14.1220364 C35.2346073,14.0157223 35.6939018,13.7894083 36.1376836,13.440119 C36.1577127,13.4244496 36.1777418,13.4099702 36.1977709,13.3937058 C36.2525564,13.3342017 36.2877055,13.2558545 36.2877055,13.1683835 C36.2877055,13.0908298 36.2574655,13.0227967 36.21348,12.9662678" id="Fill-48" fill="#FFFFFF" mask="url(#mask-2)"></path>
                        <path d="M10.5307855,11.6289014 L11.1483604,11.6289014 C11.1618233,11.6282347 11.1758591,11.6262347 11.189322,11.6262347 L10.5307855,11.6289014 Z" id="Fill-49" fill="#20B6F9" mask="url(#mask-2)"></path>
                        <path d="M50.3640336,5.39750083 L50.3541556,5.41083416 C50.3179361,5.46683416 50.3396678,5.43350083 50.3640336,5.39750083" id="Fill-50" fill="#FFFFFF" mask="url(#mask-2)"></path>
                        <path d="M50.4019113,5.22589091 C50.4019113,5.11263471 50.3109949,5.0208 50.1988713,5.0208 L39.1536131,5.0208 C39.2260713,5.02476694 39.2839985,5.08407273 39.2839985,5.15825455 C39.2839985,5.23521322 39.2223404,5.29729587 39.146544,5.29729587 C39.0895985,5.29729587 39.0409004,5.26258512 39.0196931,5.2128 C39.3067767,5.73227107 39.5404495,6.29200661 39.6828131,6.88407273 C39.6788858,6.87118017 39.6747622,6.85789091 39.6747622,6.84341157 C39.6747622,6.76665124 39.7364204,6.70437025 39.8122167,6.70437025 C39.8884058,6.70437025 39.9498676,6.76665124 39.9498676,6.84341157 C39.9498676,6.9201719 39.8884058,6.98225455 39.8122167,6.98225455 L48.8545658,6.98225455 C48.9384131,6.98225455 49.0807767,6.98225455 49.2182313,6.85908099 L50.3406458,5.4014281 C50.3406458,5.4014281 50.3498749,5.38714711 50.3593004,5.37286612 C50.4019113,5.30760992 50.4019113,5.2439405 50.4019113,5.22589091" id="Fill-51" fill="#FFFFFF" mask="url(#mask-2)"></path>
                        <path d="M50.3436109,5.4264796 L50.3712694,5.3904796 C50.380489,5.37381293 50.3620499,5.39981293 50.3436109,5.4264796" id="Fill-52" fill="#FFFFFF" mask="url(#mask-2)"></path>
                        <path d="M39.1631037,5.01939174 L39.1393964,5.0240584 L39.186811,5.0240584 C39.186811,5.0240584 39.1716647,5.01939174 39.1631037,5.01939174" id="Fill-53" fill="#FFFFFF" mask="url(#mask-2)"></path>
                        <path d="M39.0201749,5.2136573 L39.0195164,5.21232397 L39.0201749,5.2136573 Z" id="Fill-54" fill="#FFFFFF" mask="url(#mask-2)"></path>
                        <path d="M39.3383179,5.68732782 C39.5202263,5.68732782 39.6673511,5.53774598 39.6673511,5.35232185 C39.6673511,5.17358828 39.5286871,5.030697 39.3552396,5.02066116 L39.3213962,5.02066116 C39.1474786,5.030697 39.0088145,5.17358828 39.0088145,5.35232185 C39.0088145,5.39867788 39.0177454,5.44264443 39.0346672,5.4823099 L39.0346672,5.4832657 C39.0854323,5.60321791 39.2020041,5.68732782 39.3383179,5.68732782" id="Fill-55" fill="#FFFFFF" mask="url(#mask-2)"></path>
                        <path d="M39.6967602,6.93615207 C39.6921504,6.91881873 39.6868821,6.9014854 39.6829309,6.88415207 C39.6881992,6.9014854 39.6895163,6.92015207 39.6967602,6.93615207" id="Fill-56" fill="#FFFFFF" mask="url(#mask-2)"></path>
                        <path d="M40.3333773,7.03798118 C40.3333773,6.85335115 40.1862524,6.70440992 40.003874,6.70440992 C39.8219656,6.70440992 39.6748407,6.85335115 39.6748407,7.03798118 C39.6748407,7.07224242 39.6842417,7.10460026 39.6941127,7.13553055 C39.696933,7.14790266 39.7006933,7.16027478 39.7039837,7.17264689 C39.7556889,7.28923028 39.8699105,7.37107658 40.003874,7.37107658 C40.1862524,7.37107658 40.3333773,7.22213535 40.3333773,7.03798118" id="Fill-57" fill="#FFFFFF" mask="url(#mask-2)"></path>
                        <path d="M14.4214364,15.547676 C14.4214364,15.6071802 14.37372,15.6553785 14.3150073,15.6553785 L6.72928364,15.6553785 C6.67037455,15.6553785 6.62265818,15.6071802 6.62265818,15.547676 L6.62265818,14.3873455 C6.62089091,14.3792132 6.61833818,14.3566017 6.61833818,14.3484694 L6.61833818,13.3993785 C6.61833818,13.3398744 6.66605455,13.291676 6.72496364,13.291676 L14.3191309,13.291676 C14.37804,13.291676 14.4257564,13.3398744 14.4257564,13.3993785 L14.4214364,15.547676 Z M16.1877273,11.5850975 C16.1845855,11.5848992 16.1818364,11.5848992 16.1818364,11.5848992 C16.14492,11.5843041 16.1109491,11.5841058 16.0814945,11.5841058 L7.04444727,11.5841058 C6.93742909,11.640238 6.82942909,11.6949818 6.72574909,11.7560727 L6.69020727,11.7768992 C6.64504364,11.8034777 6.59988,11.8298579 6.55569818,11.8576264 C6.51524727,11.8828165 6.47577818,11.9091967 6.43611273,11.9355769 L6.40076727,11.9589818 C5.87981455,12.3041058 5.40422182,12.7170645 4.98675273,13.1867504 C4.95278182,13.2248331 4.9194,13.2635107 4.88621455,13.3025851 C4.85244,13.3422545 4.81866545,13.381924 4.78567636,13.4221884 C4.74090545,13.4769322 4.69966909,13.5350479 4.65646909,13.5909818 L4.65646909,17.1558744 C4.65646909,17.270519 4.74817091,17.3629488 4.86147273,17.3629488 L16.1826218,17.3629488 C16.2959236,17.3629488 16.3876255,17.270519 16.3876255,17.1558744 L16.3876255,11.7911802 C16.3876255,11.678519 16.2984764,11.5878744 16.1877273,11.5850975 L16.1877273,11.5850975 Z" id="Fill-58" fill="#FFFFFF" mask="url(#mask-2)"></path>
                        <path d="M53.3153389,17.7655339 C53.2041971,14.9224264 52.2182553,12.4420959 50.460408,10.643881 C48.6365825,8.7782281 46.4830625,7.79224463 43.5988735,7.79224463 C42.064488,7.79224463 40.6176807,8.11376529 39.1266916,8.78913719 C39.1304225,8.70523636 39.1365098,8.62212893 39.1365098,8.53743471 C39.1365098,8.4594843 39.1280662,8.38351736 39.1249244,8.30636033 C39.1198189,8.18298843 39.1176589,8.05882314 39.1050916,7.9378314 L39.1045025,7.9348562 C38.8024953,5.06755041 36.3948807,2.82662479 33.4778989,2.82662479 C33.0869389,2.82662479 32.703048,2.86669091 32.3307425,2.94364959 C32.2254916,2.96566612 32.1235789,2.99640992 32.0206844,3.02437686 C31.9456735,3.04421157 31.8690916,3.06007934 31.7952589,3.08328595 C31.1036662,3.30107107 30.4701971,3.65095537 29.9207716,4.10120331 C29.9064371,4.11310413 29.8913171,4.12361653 29.8769825,4.13551736 C29.7658407,4.2283438 29.6607862,4.3281124 29.5571062,4.42926942 C29.5349171,4.45088926 29.5123353,4.4721124 29.4899498,4.49353388 C29.3116516,4.37650909 29.0714989,4.22556694 28.8947716,4.12540165 C27.8037753,3.50854215 26.6197025,3.12513719 25.3753462,2.98669091 L25.1562044,2.96328595 C24.3711425,2.89525289 23.6013971,2.9256 22.8285098,3.05293884 C22.8065171,3.05670744 22.7849171,3.06126942 22.7633171,3.0662281 L22.7048007,3.07793058 C22.6798625,3.08249256 22.6557098,3.08745124 22.6313607,3.09221157 L22.5803062,3.10272397 C21.3231862,3.34609587 20.151288,3.8376 19.097208,4.56374876 C19.0795353,4.57584793 19.0618625,4.58735207 19.0437971,4.59865785 C19.023768,4.61155041 19.0035425,4.62424463 18.9842989,4.63793058 C18.9448298,4.66589752 18.9075207,4.69545124 18.8698189,4.72500496 C18.8435062,4.7458314 18.8166044,4.7668562 18.7895062,4.78728595 C18.7488589,4.8178314 18.7089971,4.84877355 18.6689389,4.8797157 L18.6496953,4.89479008 C17.2694553,5.97260826 16.2189098,7.40269091 15.6119498,9.03072397 L15.5819062,9.11145124 L15.5023789,9.07951736 C14.9293898,8.84864132 14.2723571,8.66060826 13.5495425,8.52057521 L13.4939716,8.50907107 C13.4713898,8.50450909 13.4484153,8.49935207 13.425048,8.49538512 L13.2952516,8.4733686 C12.574008,8.34860826 11.8325389,8.28255868 11.1515498,8.28255868 L10.7050189,8.29128595 C10.6176371,8.29426116 10.530648,8.29842645 10.4440516,8.30259174 L10.1473462,8.32044298 C9.36287345,8.3773686 8.60137527,8.50510413 7.88346982,8.69988099 L7.64645891,8.76612893 C4.05418255,9.82827769 1.52501891,12.6753521 0.639418909,16.6200793 C0.861702545,16.4003107 1.16547709,16.2646413 1.50106255,16.2646413 C1.90596436,16.2646413 2.264328,16.4627901 2.48916436,16.7674512 C2.85047345,15.3647405 3.450168,14.1441124 4.27489527,13.1351207 C4.31043709,13.0914843 4.34696073,13.0488397 4.383288,13.006195 C4.41902618,12.9641455 4.45496073,12.9228893 4.49168073,12.8812364 C4.94233527,12.3742612 5.45641527,11.9281785 6.01938982,11.5550876 L6.05709164,11.5300959 C6.09989891,11.5015339 6.14290255,11.4729719 6.18708436,11.4456 C6.23519345,11.4152529 6.28487345,11.3860959 6.33474982,11.3567405 L6.37009527,11.3361124 C7.72834255,10.5359802 9.33734618,10.130162 11.1515498,10.130162 C12.5041025,10.130162 13.9662262,10.4155835 15.0633098,10.8939967 C15.2895207,10.9927736 15.5163207,11.1028562 15.7376225,11.2218645 C16.312968,11.470195 16.9639135,11.1875504 17.2030844,10.6371372 C17.2425535,10.5458975 17.2688662,10.442757 17.2835935,10.322162 C17.3171716,10.1993851 17.3503571,10.0910876 17.3866844,9.98358347 C18.0623716,7.95687273 19.5728007,6.32288926 21.531528,5.5007405 C21.5580371,5.48943471 21.5851353,5.4797157 21.6120371,5.46979835 L21.6685898,5.44857521 C21.7098262,5.4321124 21.751848,5.41644298 21.7932807,5.4009719 C22.6262553,5.09055868 23.4800444,4.93505455 24.3434553,4.93505455 C24.3717316,4.93525289 24.3952953,4.93604628 24.4184662,4.93683967 L24.4636298,4.9382281 C24.5021171,4.93862479 24.5406044,4.93961653 24.579288,4.94100496 C25.4183498,4.96778182 26.2367935,5.13657521 27.0116444,5.44282314 L27.0446335,5.45551736 C27.067608,5.46424463 27.0903862,5.4729719 27.1131644,5.48249256 L27.2111498,5.52513719 C27.6337244,5.70682314 27.8454044,5.83654215 28.1898262,6.07654215 C28.2218335,6.09915372 28.2768153,6.14100496 28.326888,6.18007934 C28.5369971,6.34986446 28.8466625,6.63726942 28.8466625,6.63726942 L28.8478407,6.63607934 C28.901448,6.69161653 28.9599644,6.74318678 29.0279062,6.78602975 C29.4469462,7.05062479 30.0597971,6.92883967 30.2840444,6.55317025 C30.9609098,5.4182281 32.1681535,4.75356694 33.4778989,4.75356694 C35.5467862,4.75356694 37.2300153,6.45399669 37.2300153,8.54398017 C37.2300153,9.2893686 37.0163716,10.0099636 36.6120589,10.6288066 C36.3218335,11.0727074 36.4427935,11.6705256 36.8824516,11.9636826 C37.0444516,12.0713851 37.2266771,12.1231537 37.4071353,12.1231537 C37.6176371,12.1231537 37.8218553,12.0531372 37.990728,11.9202446 C39.4942844,10.8394512 41.0027498,10.1291702 42.377688,9.91535207 C42.4336516,9.90662479 42.4892225,9.89829421 42.5455789,9.89075702 C42.5887789,9.88480661 42.6319789,9.87984793 42.6753753,9.87488926 L42.7091498,9.87072397 C43.0622116,9.82966612 43.4085971,9.80883967 43.7382916,9.80883967 C44.3737244,9.80883967 44.8347862,9.87429421 45.416808,9.98774876 C47.4434771,10.4449388 48.9837535,11.6429554 50.0360662,13.3546909 L50.1511353,13.5458975 C50.5224589,14.1915174 50.8113098,14.9125091 51.0080662,15.6882446 L51.0202407,15.7338645 C51.0265244,15.7566744 51.0326116,15.7794843 51.0377171,15.8026909 L51.0632444,15.9175339 C51.1955935,16.500476 51.2517535,17.2121455 51.3010407,17.9218314 L51.5969607,17.6766744 L52.3054407,17.4481785 L52.9304662,17.6994843 L53.3571644,18.2586248 L53.3153389,17.7655339 Z" id="Fill-59" fill="#FFFFFF" mask="url(#mask-2)"></path>
                        <path d="M1.50102327,18.4330116 C0.996368727,18.4330116 0.587343273,18.0198545 0.587343273,17.5101025 C0.587343273,17.3508298 0.627205091,17.2010777 0.697503273,17.0705653 C0.852041455,16.7825653 1.15385236,16.586995 1.50102327,16.586995 C1.84799782,16.586995 2.15000509,16.7825653 2.30454327,17.0705653 C2.37484145,17.2010777 2.41470327,17.3508298 2.41470327,17.5101025 C2.41470327,18.0198545 2.00567782,18.4330116 1.50102327,18.4330116 M2.48912509,16.7674909 C2.26428873,16.4626314 1.90612145,16.2644826 1.50102327,16.2644826 C1.16563418,16.2644826 0.861663273,16.4003504 0.639379636,16.6199207 C0.410419636,16.8462347 0.268056,17.1612099 0.268056,17.5101025 C0.268056,18.1977719 0.820034182,18.755524 1.50102327,18.755524 C2.18201236,18.755524 2.73399055,18.1977719 2.73399055,17.5101025 C2.73399055,17.2312264 2.64228873,16.9747636 2.48912509,16.7674909" id="Fill-60" fill="#FFFFFF" mask="url(#mask-2)"></path>
                        <polygon id="Fill-61" fill="#FFFFFF" mask="url(#mask-2)" points="1.08157091 17.9847769 1.68018067 17.9847769 1.68018067 17.3787769 1.08157091 17.3787769"></polygon>
                        <polygon id="Fill-62" fill="#FFFFFF" mask="url(#mask-2)" points="1.72957091 17.9847769 2.3288392 17.9847769 2.3288392 17.3787769 1.72957091 17.3787769"></polygon>
                        <path d="M53.4311542,18.4365025 C53.3865796,17.8603041 53.1012633,17.3192132 52.3055978,17.3192132 C51.4987396,17.3192132 51.2153869,17.8785521 51.1780778,18.4654612 C51.177096,18.4741884 51.1765069,18.4835107 51.1765069,18.4928331 C51.1765069,18.6277091 51.2845069,18.7369983 51.4180342,18.7369983 C51.5515615,18.7369983 51.6597578,18.6277091 51.6597578,18.4928331 L51.6597578,18.4363041 C51.6597578,18.0741223 51.9488051,17.7805686 52.3055978,17.7805686 C52.6621942,17.7805686 52.9514378,18.0741223 52.9514378,18.4363041 L52.9514378,18.4920397 C52.9514378,18.6275107 53.0602233,18.7375934 53.194536,18.7375934 C53.3286524,18.7375934 53.4374378,18.6275107 53.4374378,18.4920397 C53.4374378,18.4729983 53.4352778,18.4543537 53.4311542,18.4365025" id="Fill-63" fill="#FFFFFF" mask="url(#mask-2)"></path>
                        <path d="M51.1781564,18.465362 C51.1769782,18.4742876 51.1763891,18.4836099 51.1763891,18.4929322 C51.1763891,18.6276099 51.2845855,18.7368992 51.4181127,18.7368992 C51.5514436,18.7368992 51.65964,18.6276099 51.65964,18.4929322 L51.65964,18.4364033 C51.65964,18.2342876 51.7497709,18.0535934 51.8913491,17.9331967 C51.7967018,17.6027504 52.2530509,17.5757752 52.30548,17.3193124 C51.4988182,17.3193124 51.2152691,17.8784529 51.1781564,18.465362" id="Fill-64" fill="#FFFFFF" mask="url(#mask-2)"></path>
                    </g>
                </g>
            </g>
        </g>
    </g>
</svg>