<?xml version="1.0" encoding="UTF-8"?>
<svg width="18px" height="22px" viewBox="0 0 18 22" version="1.1" xmlns="http://www.w3.org/2000/svg" xmlns:xlink="http://www.w3.org/1999/xlink">
    <!-- Generator: Sketch 49.1 (51147) - http://www.bohemiancoding.com/sketch -->
    <title>Shape Copy</title>
    <desc>Created with Sketch.</desc>
    <defs></defs>
    <g id="Page-1" stroke="none" stroke-width="1" fill="none" fill-rule="evenodd">
        <g id="首页-员工首页-" transform="translate(-1332.000000, -14.000000)" fill="#FFFFFF">
            <g id="topBar">
                <g id="msg" transform="translate(1316.000000, 0.000000)">
                    <path d="M18.5774301,30.9265123 L19.4431743,29.627896 C19.5413409,29.4804831 19.5938746,29.3074031 19.5942076,29.1302954 L19.5942076,23.2966361 C19.5942076,20.0467241 21.9136468,17.5951308 24.9882523,17.5951308 C28.0628578,17.5951308 30.382297,20.0467241 30.382297,23.2966361 L30.382297,29.1289469 C30.382297,29.3069504 30.4362374,29.4795598 30.5333302,29.627896 L31.3990744,30.9265123 L18.5774301,30.9265123 Z M24.9882523,33.7786134 C24.2865334,33.7755204 23.6510731,33.3634723 23.3619478,32.7240777 L26.6145568,32.7240777 C26.3254315,33.3634723 25.6899711,33.7755204 24.9882523,33.7786134 L24.9882523,33.7786134 Z M33.827743,31.3256716 L32.1798624,28.8578961 L32.1798624,23.2952875 C32.1798624,19.7244299 29.8981815,16.8183884 26.7413168,16.0214183 C26.7615445,15.9485987 26.7858177,15.8784761 26.7858177,15.7962169 C26.7858177,14.8064097 25.979408,14 24.9882523,14 C23.9970966,14 23.1906869,14.8064097 23.1906869,15.7975654 C23.1906869,15.8784761 23.2176571,15.9485987 23.2351877,16.0227668 C20.0796716,16.8197369 17.7966422,19.7244299 17.7966422,23.2966361 L17.7966422,28.8565476 L16.1487615,31.3256716 C15.9667236,31.602028 15.9506013,31.955869 16.1067536,32.2476345 C16.2629058,32.5394001 16.5662663,32.7222546 16.8971852,32.7240777 L21.4713351,32.7240777 C21.8243344,34.3852052 23.2900333,35.5738376 24.9882523,35.5761788 C26.6859652,35.5732022 28.1509276,34.3847114 28.5038209,32.7240777 L33.0793193,32.7240777 C33.4114552,32.7250282 33.7169997,32.5425963 33.8737244,32.2497611 C34.0304492,31.9569258 34.0127638,31.6015021 33.827743,31.3256716 L33.827743,31.3256716 Z" id="Shape-Copy"></path>
                </g>
            </g>
        </g>
    </g>
</svg>