<?xml version="1.0" encoding="UTF-8"?>
<svg width="60px" height="60px" viewBox="0 0 60 60" version="1.1" xmlns="http://www.w3.org/2000/svg" xmlns:xlink="http://www.w3.org/1999/xlink">
    <!-- Generator: Sketch 48.2 (47327) - http://www.bohemiancoding.com/sketch -->
    <title>Group 11</title>
    <desc>Created with Sketch.</desc>
    <defs></defs>
    <g id="首页-集团" stroke="none" stroke-width="1" fill="none" fill-rule="evenodd" transform="translate(-296.000000, -220.000000)">
        <g id="Group-3" transform="translate(83.000000, 174.000000)">
            <g id="a1" transform="translate(213.000000, 40.000000)">
                <g id="Group-11" transform="translate(0.000000, 6.000000)">
                    <circle id="Oval-2" stroke="#D7EBFF" cx="30" cy="30" r="29.5"></circle>
                    <polygon id="Shape" stroke="#258FF8" stroke-width="0.4" fill="#258FF8" fill-rule="nonzero" points="19.9795761 16.4915888 20.7437315 16 29.7128267 29.2318511 30.2759229 29.2318511 39.244982 16 40.0091736 16.5120747 31.3819297 29.2318511 41 29.2318511 41 30.1740568 30.7384171 30.1740568 30.489788 30.5838123 30.489788 35.2127495 41 35.2127495 41 36.1140201 30.489788 36.1140201 30.489788 44 29.5318083 44 29.5318083 36.1551394 19 36.1551394 19 35.171925 29.5318083 35.171925 29.5318083 30.6247842 29.2352115 30.153534 19 30.153534 19 29.2318143 28.6067476 29.2318143"></polygon>
                </g>
            </g>
        </g>
    </g>
</svg>