<?xml version="1.0" encoding="UTF-8"?>
<svg width="60px" height="60px" viewBox="0 0 60 60" version="1.1" xmlns="http://www.w3.org/2000/svg" xmlns:xlink="http://www.w3.org/1999/xlink">
    <!-- Generator: Sketch 48.2 (47327) - http://www.bohemiancoding.com/sketch -->
    <title>Group 11 Copy</title>
    <desc>Created with Sketch.</desc>
    <defs></defs>
    <g id="首页-集团" stroke="none" stroke-width="1" fill="none" fill-rule="evenodd" transform="translate(-599.000000, -220.000000)">
        <g id="Group-3" transform="translate(83.000000, 174.000000)">
            <g id="a2" transform="translate(516.000000, 41.000000)">
                <g id="Group-11-Copy" transform="translate(0.000000, 5.000000)">
                    <circle id="Oval-2" stroke="#CFFBE4" cx="30" cy="30" r="29.5"></circle>
                    <path d="M45.8599566,25.9671124 L45.2037364,25.9671124 L45.2037364,20.9328987 C45.2037364,18.7644602 43.0861072,17 40.4836406,17 L18.7200957,17 C16.1176292,17 14,18.7641728 14,20.9328987 L14,39.0671013 C14,41.2355398 16.1172843,43 18.7200957,43 L40.4839855,43 C43.0864521,43 45.2040812,41.2355398 45.2040812,39.0671013 L45.2040812,34.0326003 L45.8599566,34.0326003 C47.0413185,34.0314919 47.9986697,33.2338035 48,32.249464 L48,27.7502486 C47.9986697,26.7659092 47.0413185,25.9682208 45.8599566,25.9671124 Z M43.8243981,39.0671013 C43.8243981,40.6019892 42.325747,41.8507017 40.4836406,41.8507017 L18.7200957,41.8507017 C16.8779894,41.8507017 15.3793383,40.6019892 15.3793383,39.0671013 L15.3793383,20.9328987 C15.3793383,19.3980108 16.8779894,18.1492983 18.7200957,18.1492983 L40.4839855,18.1492983 C42.3260918,18.1492983 43.8247429,19.3980108 43.8247429,20.9328987 L43.8247429,25.9671124 L29.8872188,25.9671124 C28.7058569,25.9682208 27.7485057,26.7659092 27.7471754,27.7502486 L27.7471754,32.249464 C27.7485057,33.2338035 28.7058569,34.0314919 29.8872188,34.0326003 L43.8243981,34.0326003 L43.8243981,39.0671013 Z M46.6206617,32.249464 C46.6202814,32.5993918 46.2799248,32.8829852 45.8599566,32.883302 L29.8872188,32.883302 C29.4672506,32.8829852 29.126894,32.5993918 29.1265137,32.249464 L29.1265137,27.7502486 C29.1265137,27.400862 29.4679,27.1164107 29.8872188,27.1164107 L45.8599566,27.1164107 C46.2796203,27.1164107 46.6206617,27.400862 46.6206617,27.7502486 L46.6206617,32.249464 Z M33.2962535,28.1122776 C32.0458381,28.1135441 31.0325551,28.9578361 31.0310351,29.9997127 C31.0310351,31.0406896 32.0472626,31.8874351 33.2962535,31.8874351 C34.5452443,31.8874351 35.5614718,31.0406896 35.5614718,29.9997127 C35.5618167,28.9590231 34.5452443,28.1122776 33.2962535,28.1122776 Z M33.2962535,30.7381368 C32.8070973,30.7376615 32.4107535,30.4072897 32.4103734,29.9997127 C32.4103734,29.5925738 32.8076229,29.2615759 33.2962535,29.2615759 C33.7848841,29.2615759 34.1821335,29.5928611 34.1821335,29.9997127 C34.1817535,30.4072897 33.7854097,30.7376615 33.2962535,30.7381368 Z" id="Combined-Shape" stroke="#45D38B" stroke-width="0.2" fill="#45D38B" fill-rule="nonzero"></path>
                </g>
            </g>
        </g>
    </g>
</svg>